<?xml version="1.0" standalone="no"?>
<!DOCTYPE svg PUBLIC "-//W3C//DTD SVG 20010904//EN"
 "http://www.w3.org/TR/2001/REC-SVG-20010904/DTD/svg10.dtd">
<svg version="1.0" xmlns="http://www.w3.org/2000/svg"
 width="660.000000pt" height="660.000000pt" viewBox="0 0 660.000000 660.000000"
 preserveAspectRatio="xMidYMid meet">
<metadata>
Created by potrace 1.14, written by Peter Selinger 2001-2017
</metadata>
<g transform="translate(0.000000,660.000000) scale(0.100000,-0.100000)"
fill="#000000" stroke="none">
<path d="M3770 6589 c0 -3 11 -43 25 -90 14 -46 28 -97 31 -113 3 -16 7 -32 9
-36 2 -3 6 -17 9 -31 2 -13 11 -58 20 -99 8 -41 18 -99 21 -129 4 -30 9 -63
11 -75 3 -12 6 -82 8 -156 4 -160 -7 -272 -35 -385 -6 -22 -11 -45 -11 -52 -1
-7 -5 -10 -10 -7 -5 3 -8 11 -6 17 1 7 -1 21 -4 32 -4 11 -9 36 -12 55 -3 19
-15 69 -26 110 -12 41 -23 82 -25 90 -2 8 -4 15 -5 15 -1 0 -3 7 -5 15 -4 19
-68 193 -89 242 -9 21 -16 39 -16 40 2 8 -136 268 -161 305 l-30 43 -57 -42
c-375 -274 -593 -566 -707 -948 -10 -30 -19 -64 -21 -75 -2 -11 -8 -38 -13
-60 -24 -101 -35 -226 -36 -403 0 -78 -1 -142 -2 -142 -1 0 -21 26 -45 58 -78
106 -219 253 -313 327 -27 22 -52 43 -55 46 -14 17 -163 107 -239 144 -105 52
-257 105 -348 121 -13 2 -35 6 -50 9 -157 29 -400 34 -548 11 -16 -3 -52 -8
-80 -11 -67 -9 -237 -45 -254 -55 -9 -5 -2 -9 21 -14 19 -3 97 -24 174 -47 76
-22 144 -41 149 -43 34 -8 195 -75 280 -117 155 -75 258 -146 375 -257 l55
-52 -35 11 c-19 6 -44 15 -55 19 -19 9 -146 47 -189 57 -39 9 -111 24 -136 29
-14 2 -35 7 -48 9 -108 25 -518 52 -559 37 -7 -2 -11 -18 -8 -40 1 -21 6 -67
10 -104 5 -54 39 -229 59 -310 41 -159 163 -411 265 -548 54 -73 188 -214 271
-285 101 -87 379 -265 403 -257 5 1 7 -3 5 -10 -3 -7 -16 -13 -29 -14 -13 0
-42 -4 -64 -8 -22 -3 -53 -8 -70 -10 -125 -16 -319 -78 -470 -151 -323 -156
-559 -400 -733 -758 -48 -98 -130 -308 -138 -354 -2 -12 -9 -34 -14 -48 -5
-14 -8 -25 -7 -25 2 0 59 55 128 123 68 67 146 140 173 162 27 22 54 45 60 50
6 6 36 28 66 50 30 22 57 43 58 47 2 5 8 8 12 8 5 0 29 13 52 29 76 51 287
151 353 167 6 2 19 5 30 8 11 2 29 7 40 11 11 4 -5 -14 -35 -41 -135 -121
-261 -257 -368 -399 -79 -104 -215 -317 -227 -355 -4 -14 -2 -20 9 -20 9 0 16
-3 16 -8 0 -4 15 -12 33 -19 17 -6 76 -29 130 -52 130 -54 308 -102 432 -117
22 -3 51 -7 65 -10 33 -6 262 -5 320 1 89 10 166 23 205 35 17 5 42 11 56 14
104 17 394 145 517 227 24 16 47 29 53 29 5 0 9 5 9 12 0 6 2 9 5 6 6 -5 -12
-59 -40 -123 -22 -50 -69 -198 -85 -270 -51 -224 -56 -435 -15 -650 4 -22 9
-47 10 -55 12 -63 86 -260 135 -354 53 -105 172 -291 217 -341 10 -11 39 -45
64 -75 74 -87 129 -143 135 -137 3 3 2 12 -2 19 -5 7 -9 16 -10 21 -1 4 -2 8
-4 10 -1 1 -3 9 -5 17 -2 8 -13 51 -25 95 -12 44 -23 91 -26 105 -3 14 -7 32
-10 42 -2 9 -9 40 -14 70 -5 29 -11 64 -14 78 -21 107 -30 401 -15 499 16 112
40 223 46 218 2 -2 10 -37 18 -78 8 -41 16 -83 19 -95 5 -27 27 -105 34 -124
3 -8 6 -19 8 -25 22 -86 127 -341 188 -455 22 -41 45 -85 50 -97 6 -13 14 -23
19 -23 4 0 7 -6 7 -14 0 -8 8 -24 19 -37 l18 -23 74 54 c262 191 447 399 576
645 66 126 137 339 159 475 8 54 15 107 18 146 2 23 5 45 8 50 2 5 3 73 3 152
0 78 2 142 5 142 3 0 15 -15 26 -33 53 -81 216 -256 319 -342 96 -80 271 -185
390 -235 50 -21 165 -59 165 -54 0 2 8 0 19 -5 10 -6 31 -13 47 -15 16 -3 54
-10 84 -16 198 -38 483 -30 725 20 28 6 65 13 84 16 56 9 101 30 69 31 -29 1
-125 26 -268 70 -30 9 -59 18 -65 19 -72 15 -340 138 -440 202 -119 75 -276
204 -264 217 3 2 36 -7 75 -20 104 -37 315 -88 413 -100 30 -4 63 -9 75 -11
49 -10 190 -18 316 -19 l134 0 -2 45 c-2 25 -5 56 -6 70 -2 14 -7 52 -10 85
-4 33 -10 68 -12 77 -3 10 -7 30 -10 45 -17 105 -115 389 -138 405 -6 4 -7 8
-3 8 5 0 0 15 -11 33 -11 17 -32 54 -47 82 -50 92 -131 200 -219 295 -53 57
-200 190 -210 190 -4 0 -14 6 -21 13 -32 28 -48 39 -127 90 -79 51 -147 91
-158 92 -3 0 -16 8 -30 18 l-24 17 29 1 c17 0 39 2 50 4 11 2 38 6 61 10 70
10 97 15 179 36 44 12 87 22 95 24 16 4 79 28 168 64 199 80 421 246 562 420
19 24 40 48 45 55 21 23 115 167 115 176 0 5 6 15 13 22 37 39 177 369 203
480 3 13 8 33 11 46 4 16 -13 4 -58 -44 -35 -37 -82 -83 -103 -103 -22 -20
-51 -47 -66 -61 -14 -14 -50 -45 -80 -70 -30 -25 -57 -48 -60 -51 -16 -21
-246 -167 -319 -203 -84 -41 -202 -88 -230 -93 -8 -1 -26 -4 -40 -8 -23 -5
-21 -1 14 27 76 61 277 273 349 368 79 102 184 259 236 353 l32 57 -88 41
c-121 56 -341 129 -434 144 -14 2 -43 7 -65 11 -22 3 -58 9 -81 13 -114 21
-477 -4 -569 -39 -14 -5 -25 -7 -25 -5 0 3 -16 -1 -35 -9 -19 -8 -35 -13 -35
-11 0 7 -158 -53 -226 -86 -34 -16 -64 -29 -67 -29 -8 0 -175 -97 -208 -121
-15 -10 -29 -19 -32 -19 -3 0 15 47 39 105 24 58 41 105 39 105 -2 0 3 16 11
36 17 39 63 236 70 299 24 196 18 334 -21 534 -4 21 -30 118 -39 146 -2 6 -4
13 -5 17 -13 61 -189 401 -221 428 -3 3 -17 21 -30 40 -56 82 -259 316 -260
299z m-829 -1382 c-5 -12 -12 -45 -15 -72 -4 -28 -11 -77 -16 -110 -15 -96
-21 -191 -21 -325 0 -167 5 -224 36 -425 4 -24 56 -233 68 -270 20 -65 41
-126 52 -150 50 -116 75 -171 117 -251 54 -107 69 -134 83 -150 6 -6 22 -32
37 -58 15 -25 33 -46 39 -46 7 0 10 3 6 6 -3 3 3 15 14 27 10 11 19 27 19 34
0 7 5 13 10 13 6 0 10 5 10 11 0 6 8 23 19 37 72 103 327 632 304 632 -29 0
167 129 306 202 85 44 274 125 366 156 82 28 225 71 255 76 14 2 25 5 25 7 0
1 9 3 20 5 11 2 40 8 64 14 45 11 71 7 29 -5 -13 -3 -32 -10 -43 -15 -11 -5
-54 -21 -95 -36 -41 -15 -86 -33 -100 -39 -14 -7 -52 -26 -85 -42 -119 -58
-316 -177 -355 -214 -8 -8 -31 -25 -51 -39 -73 -50 -263 -229 -336 -317 -110
-131 -190 -246 -273 -391 -38 -67 -72 -133 -75 -145 l-6 -23 233 2 c128 1 262
5 298 8 136 13 190 19 290 35 54 9 57 8 155 -42 137 -70 375 -221 410 -261 6
-6 30 -27 55 -46 94 -73 387 -360 368 -360 -4 0 -13 6 -20 13 -79 75 -354 277
-377 277 -6 0 -11 3 -11 8 0 4 -10 12 -23 18 -12 6 -67 35 -122 63 -83 43
-283 128 -320 136 -5 1 -17 5 -25 8 -41 16 -99 31 -160 43 -14 2 -32 7 -40 11
-14 5 -24 8 -80 17 -14 2 -41 7 -60 10 -58 10 -100 15 -195 22 -107 9 -383 10
-391 1 -3 -3 13 -41 37 -84 23 -43 48 -87 53 -98 45 -87 261 -410 300 -451 6
-6 20 -23 31 -39 11 -15 29 -36 39 -46 18 -17 20 -36 22 -216 2 -205 -8 -342
-36 -488 -5 -27 -11 -61 -14 -75 -8 -49 -47 -206 -68 -275 -27 -86 -23 -73
-32 -118 -13 -60 -18 -35 -7 29 6 33 13 73 16 89 2 17 7 41 10 54 19 98 28
483 13 601 -21 162 -25 187 -50 289 -11 46 -21 90 -22 97 -1 7 -5 17 -9 20 -4
4 -7 14 -7 23 0 26 -86 245 -140 354 -58 120 -104 202 -152 275 l-35 52 -25
-37 c-50 -77 -118 -192 -118 -201 0 -6 -4 -12 -9 -14 -10 -4 -175 -340 -191
-390 -6 -21 -15 -40 -20 -43 -4 -3 -11 -21 -14 -40 -10 -52 -38 -77 -198 -174
-141 -85 -416 -209 -523 -235 -5 -2 -17 -6 -25 -9 -30 -12 -232 -68 -260 -72
-8 -2 -35 -7 -60 -13 -55 -13 -65 -8 -13 8 21 6 45 14 53 17 8 4 17 7 20 7 35
7 386 170 400 186 3 3 34 23 70 44 291 176 575 467 766 786 21 36 41 67 44 70
7 7 37 73 38 84 0 5 5 12 10 15 5 3 12 16 16 29 8 25 24 23 -224 24 -103 1
-353 -11 -373 -17 -7 -2 -43 -6 -82 -10 -38 -3 -81 -8 -95 -10 -102 -17 -94
-19 -202 36 -57 29 -105 56 -108 59 -3 4 -13 9 -22 13 -18 6 -199 125 -208
136 -3 3 -30 25 -60 47 -123 92 -345 303 -426 404 -25 31 -22 29 21 -10 227
-207 552 -401 815 -486 25 -8 54 -19 65 -24 11 -5 31 -11 45 -14 14 -3 72 -17
130 -31 165 -40 319 -57 528 -61 106 -1 200 0 208 3 12 4 6 21 -27 82 -23 42
-53 96 -67 121 -26 48 -40 71 -118 190 -63 98 -155 224 -166 228 -4 2 -8 9 -8
15 0 7 -18 31 -40 55 -35 38 -40 50 -45 105 -8 82 -8 265 -1 352 9 106 16 181
21 207 3 13 8 43 11 68 4 25 10 56 15 69 5 13 8 26 5 28 -2 2 5 36 16 76 10
40 21 82 23 93 3 12 16 60 30 108 14 47 25 88 25 91 0 3 4 5 10 5 6 0 6 -9 1
-23z"/>
</g>
</svg>
