<svg width="1831" height="1428" viewBox="0 0 1831 1428" fill="none" xmlns="http://www.w3.org/2000/svg">
<mask id="mask0_117_126" style="mask-type:luminance" maskUnits="userSpaceOnUse" x="909" y="0" width="448" height="536">
<path d="M1163.7 325.454C1053.25 346.074 968.582 392.524 909.689 464.806C920.488 242.927 1063.27 246.74 985.541 0C1085.68 100.426 1108.02 210.087 1052.57 328.981C1150.75 263.439 1252.18 257.266 1356.86 310.459C1269.61 470.604 1122.9 545.279 916.744 534.483C968.548 428.888 1050.87 359.21 1163.7 325.454Z" fill="white"/>
</mask>
<g mask="url(#mask0_117_126)">
<path d="M1356.86 0H909.689V545.28H1356.86V0Z" fill="url(#paint0_linear_117_126)"/>
</g>
<mask id="mask1_117_126" style="mask-type:luminance" maskUnits="userSpaceOnUse" x="914" y="333" width="498" height="478">
<path d="M1218.61 650.466C1145.52 565.123 1062.96 515.021 970.917 500.162C1168.47 398.574 1236.56 524.128 1411.38 333.447C1374.47 470.38 1290.68 544.561 1159.99 555.988C1265.84 608.244 1321.9 692.996 1328.17 810.248C1145.86 814.759 1007.83 725.047 914.104 541.111C1031.45 533.175 1132.95 569.627 1218.61 650.466Z" fill="white"/>
</mask>
<g mask="url(#mask1_117_126)">
<path d="M1411.38 333.447H914.103V814.759H1411.38V333.447Z" fill="url(#paint1_linear_117_126)"/>
</g>
<mask id="mask2_117_126" style="mask-type:luminance" maskUnits="userSpaceOnUse" x="815" y="542" width="521" height="494">
<path d="M964.595 860.513C1001.96 754.551 1004.07 657.997 970.918 570.855C1157.67 691.147 1082.98 812.889 1335.53 868.946C1198.49 905.454 1092.35 869.974 1017.1 762.508C1024.78 880.304 979.409 971.231 881.001 1035.29C785.938 879.654 794.619 715.268 907.047 542.127C972.596 639.787 991.779 745.916 964.595 860.513Z" fill="white"/>
</mask>
<g mask="url(#mask2_117_126)">
<path d="M1335.53 542.127H785.938V1035.29H1335.53V542.127Z" fill="url(#paint2_linear_117_126)"/>
</g>
<mask id="mask3_117_126" style="mask-type:luminance" maskUnits="userSpaceOnUse" x="462" y="535" width="448" height="537">
<path d="M655.678 745.563C766.128 724.944 850.798 678.493 909.689 606.21C898.891 828.088 756.113 824.277 833.84 1071.02C733.702 970.59 711.358 860.93 766.808 742.036C668.628 807.578 567.2 813.751 462.522 760.557C549.772 600.413 696.475 525.737 902.635 536.534C850.831 642.13 768.512 711.806 655.678 745.563Z" fill="white"/>
</mask>
<g mask="url(#mask3_117_126)">
<path d="M909.689 525.734H462.522V1071.01H909.689V525.734Z" fill="url(#paint3_linear_117_126)"/>
</g>
<mask id="mask4_117_126" style="mask-type:luminance" maskUnits="userSpaceOnUse" x="408" y="260" width="498" height="478">
<path d="M600.772 420.551C673.853 505.894 756.416 555.995 848.461 570.855C650.909 672.443 582.821 546.888 408 737.57C444.904 600.637 528.7 526.456 659.391 515.03C553.54 462.774 497.479 378.022 491.207 260.77C673.522 256.26 811.544 345.972 905.275 529.907C787.925 537.842 686.424 501.391 600.772 420.551Z" fill="white"/>
</mask>
<g mask="url(#mask4_117_126)">
<path d="M905.276 256.26H408.001V737.57H905.276V256.26Z" fill="url(#paint4_linear_117_126)"/>
</g>
<mask id="mask5_117_126" style="mask-type:luminance" maskUnits="userSpaceOnUse" x="483" y="35" width="521" height="494">
<path d="M854.785 210.504C817.417 316.467 815.308 413.018 848.463 500.162C661.708 379.87 736.398 258.127 483.853 202.07C620.892 165.563 727.033 201.042 802.273 308.51C794.603 190.712 839.97 99.786 938.378 35.7295C1033.44 191.363 1024.76 355.749 912.331 528.89C846.784 431.23 827.601 325.101 854.785 210.504Z" fill="white"/>
</mask>
<g mask="url(#mask5_117_126)">
<path d="M1033.44 35.7295H483.853V528.89H1033.44V35.7295Z" fill="url(#paint5_linear_117_126)"/>
</g>
<path d="M64.5 1353C49.6667 1353 36.5 1351.17 25 1347.5C13.5 1344 5.75 1338.33 1.75 1330.5C0.916667 1328.83 0.5 1327.75 0.5 1327.25C0.5 1326.92 0.666667 1326.75 1 1326.75C1.66667 1326.75 2.83333 1327.33 4.5 1328.5C10.8333 1332.83 18.9167 1335.67 28.75 1337C38.5833 1338.33 48.4167 1339 58.25 1339C67.75 1339 78 1338.17 89 1336.5C100.167 1334.83 111.333 1332.42 122.5 1329.25C133.833 1325.92 144.833 1321.75 155.5 1316.75C166.167 1311.75 175.917 1305.92 184.75 1299.25C198.583 1288.75 208.667 1278.58 215 1268.75C221.333 1258.92 224.5 1249.67 224.5 1241C224.5 1231.5 221 1223.08 214 1215.75C207 1208.42 197.25 1202.75 184.75 1198.75C172.417 1194.58 157.917 1192.5 141.25 1192.5C135.25 1192.5 129.083 1192.75 122.75 1193.25C112.083 1194.25 101.417 1196.08 90.75 1198.75C80.25 1201.25 70.1667 1204.42 60.5 1208.25C51 1212.08 42.5 1216.25 35 1220.75C27.5 1225.25 21.5833 1229.92 17.25 1234.75C13.0833 1239.42 11 1244 11 1248.5C11 1251.33 12 1254.17 14 1257C14.5 1257.5 14.75 1258.17 14.75 1259C14.75 1259.67 14.5 1260.17 14 1260.5C13.5 1260.67 12.8333 1260.42 12 1259.75C10.5 1258.08 9.08333 1255.5 7.75 1252C6.41667 1248.33 5.75 1244.25 5.75 1239.75C5.75 1235.25 6.75 1230.58 8.75 1225.75C10.9167 1220.75 14.6667 1216.17 20 1212C26.3333 1207 34.1667 1202.33 43.5 1198C52.8333 1193.5 63 1189.58 74 1186.25C85.1667 1182.92 96.5833 1180.33 108.25 1178.5C120.083 1176.67 131.75 1175.75 143.25 1175.75C163.083 1175.75 179.333 1178.75 192 1184.75C204.833 1190.58 214.333 1198.42 220.5 1208.25C226.667 1217.92 229.75 1228.58 229.75 1240.25C229.75 1250.92 227.167 1261.83 222 1273C217 1284.17 209.583 1294.75 199.75 1304.75C190.083 1314.75 178.083 1323.42 163.75 1330.75C154.583 1335.25 144.417 1339.17 133.25 1342.5C122.083 1345.83 110.583 1348.42 98.75 1350.25C86.9167 1352.08 75.5 1353 64.5 1353ZM39.25 1319.25C38.0833 1319.25 37.5 1318.08 37.5 1315.75C37.5 1313.42 38.75 1309.58 41.25 1304.25C43.9167 1298.92 47.4167 1292.75 51.75 1285.75C56.0833 1278.75 60.8333 1271.42 66 1263.75C71.3333 1255.92 76.6667 1248.33 82 1241C87.3333 1233.5 92.3333 1226.75 97 1220.75C101.667 1214.58 105.583 1209.75 108.75 1206.25C112.083 1202.58 114.167 1200.75 115 1200.75H117.25C119.083 1200.75 120 1201.17 120 1202C120 1202.83 119.333 1203.92 118 1205.25C112.333 1211.42 106.333 1218.42 100 1226.25C93.8333 1234.08 87.6667 1242.33 81.5 1251C75.3333 1259.5 69.5 1267.92 64 1276.25C58.6667 1284.58 54 1292.33 50 1299.5C46 1306.67 43.0833 1312.67 41.25 1317.5C40.75 1318.67 40.0833 1319.25 39.25 1319.25ZM319.443 1362C318.61 1362 318.693 1361.25 319.693 1359.75C320.86 1358.25 323.61 1355.58 327.943 1351.75C335.777 1344.75 341.527 1337.42 345.193 1329.75C349.027 1322.08 350.943 1314.75 350.943 1307.75C350.943 1297.25 346.943 1288.33 338.943 1281C331.11 1273.5 319.777 1269.75 304.943 1269.75C295.777 1269.75 285.443 1271.5 273.943 1275C267.277 1277 262.777 1278 260.443 1278C259.11 1278 258.443 1277.67 258.443 1277C258.443 1276.5 259.36 1275.33 261.193 1273.5C265.36 1269.67 271.443 1264.67 279.443 1258.5C287.443 1252.17 296.61 1245.33 306.943 1238C317.443 1230.67 328.36 1223.33 339.693 1216C351.193 1208.5 362.443 1201.58 373.443 1195.25C384.443 1188.92 394.527 1183.75 403.693 1179.75C413.027 1175.58 420.693 1173.17 426.693 1172.5H427.943C429.777 1172.5 430.693 1173.08 430.693 1174.25C430.693 1176.08 429.36 1177.58 426.693 1178.75C412.027 1183.92 397.277 1190.42 382.443 1198.25C367.61 1206.08 353.36 1214.5 339.693 1223.5C326.027 1232.33 313.527 1241 302.193 1249.5C290.86 1257.83 281.193 1265 273.193 1271C289.193 1265.83 303.86 1263.25 317.193 1263.25C329.36 1263.25 339.777 1265.08 348.443 1268.75C357.11 1272.42 363.777 1277.33 368.443 1283.5C373.11 1289.5 375.443 1296.25 375.443 1303.75C375.443 1312.92 371.527 1322.42 363.693 1332.25C356.027 1342.08 343.693 1351.08 326.693 1359.25C325.193 1359.92 323.777 1360.5 322.443 1361C321.11 1361.67 320.11 1362 319.443 1362ZM206.443 1361.25C205.777 1361.25 205.443 1360.42 205.443 1358.75C205.443 1357.92 205.527 1356.92 205.693 1355.75C205.86 1354.75 206.277 1353.42 206.943 1351.75C208.277 1347.92 210.61 1342.42 213.943 1335.25C217.277 1328.08 221.193 1319.83 225.693 1310.5C230.36 1301.17 235.36 1291.42 240.693 1281.25C246.193 1271.08 251.777 1261 257.443 1251C263.11 1241 268.527 1231.75 273.693 1223.25C279.027 1214.58 283.777 1207.25 287.943 1201.25C292.277 1195.25 295.777 1191.17 298.443 1189C300.11 1187.67 302.527 1187 305.693 1187C307.527 1187 309.193 1187.33 310.693 1188C312.193 1188.67 312.943 1189.83 312.943 1191.5C312.943 1193 312.11 1194.83 310.443 1197C306.443 1202.17 301.86 1208.42 296.693 1215.75C291.693 1222.92 286.443 1230.5 280.943 1238.5C275.61 1246.5 270.277 1254.5 264.943 1262.5C259.777 1270.5 255.027 1277.92 250.693 1284.75C245.36 1293.08 239.86 1302 234.193 1311.5C228.693 1320.83 223.61 1329.67 218.943 1338C214.443 1346.33 211.027 1353.17 208.693 1358.5C208.027 1360.33 207.277 1361.25 206.443 1361.25ZM449.342 1234.25C448.342 1234.25 447.258 1233.83 446.092 1233C443.092 1230.17 441.592 1226.58 441.592 1222.25C441.592 1217.08 443.758 1211.75 448.092 1206.25C452.592 1200.58 459.175 1196.08 467.842 1192.75C477.675 1188.92 488.342 1185.75 499.842 1183.25C511.342 1180.58 523.092 1178.67 535.092 1177.5C547.258 1176.17 558.925 1175.5 570.092 1175.5C574.258 1175.5 578.342 1175.58 582.342 1175.75C586.342 1175.92 590.175 1176.17 593.842 1176.5C618.342 1178.83 637.008 1183.5 649.842 1190.5C662.842 1197.5 669.342 1204.83 669.342 1212.5C669.342 1215.67 668.258 1218.67 666.092 1221.5C665.092 1222.83 663.592 1224.17 661.592 1225.5C659.758 1226.67 658.258 1227.25 657.092 1227.25C656.092 1227.25 655.592 1226.75 655.592 1225.75C655.592 1224.58 656.425 1222.67 658.092 1220C660.092 1217 661.092 1214.25 661.092 1211.75C661.092 1206.92 658.008 1203.17 651.842 1200.5C645.842 1197.67 637.925 1195.75 628.092 1194.75C618.425 1193.58 608.008 1193 596.842 1193C589.175 1193 581.425 1193.25 573.592 1193.75C565.758 1194.08 558.425 1194.58 551.592 1195.25C548.425 1195.58 543.592 1196.17 537.092 1197C530.758 1197.83 523.592 1198.92 515.592 1200.25C507.592 1201.42 499.508 1202.92 491.342 1204.75C483.175 1206.42 475.675 1208.33 468.842 1210.5C462.008 1212.67 456.425 1215.08 452.092 1217.75C447.925 1220.25 445.842 1223.08 445.842 1226.25C445.842 1228.42 447.092 1230.67 449.592 1233C449.925 1233.33 450.092 1233.58 450.092 1233.75C450.092 1234.08 449.842 1234.25 449.342 1234.25ZM518.092 1360.25C509.425 1359.58 503.508 1356.83 500.342 1352C497.175 1347.17 495.592 1341.5 495.592 1335C495.592 1329.5 496.342 1323.83 497.842 1318C499.342 1312.17 500.925 1306.83 502.592 1302C504.258 1297.33 506.425 1292.42 509.092 1287.25C511.925 1282.08 515.675 1275.92 520.342 1268.75C525.175 1261.58 531.425 1252.58 539.092 1241.75C546.758 1230.92 556.258 1217.5 567.592 1201.5C569.592 1199 571.342 1197.75 572.842 1197.75C573.842 1197.75 574.508 1198.17 574.842 1199C575.342 1199.67 575.425 1200.33 575.092 1201C559.425 1224.17 547.342 1244.08 538.842 1260.75C530.508 1277.25 524.342 1291.33 520.342 1303C519.508 1305.33 518.425 1308.67 517.092 1313C515.925 1317.17 514.842 1321.75 513.842 1326.75C512.842 1331.58 512.342 1336.17 512.342 1340.5C512.342 1345.17 513.175 1349.17 514.842 1352.5C516.508 1355.83 519.425 1357.5 523.592 1357.5C526.092 1357.5 528.425 1356.67 530.592 1355C531.425 1354.5 531.925 1354.25 532.092 1354.25C532.425 1354.25 532.592 1354.42 532.592 1354.75C532.592 1355.25 532.092 1355.92 531.092 1356.75C527.925 1359.58 523.592 1360.75 518.092 1360.25ZM608.246 1340.25C604.079 1340.25 600.746 1339.08 598.246 1336.75C595.913 1334.42 594.746 1331.25 594.746 1327.25C594.746 1324.75 595.329 1321.92 596.496 1318.75C597.663 1315.58 599.496 1312.33 601.996 1309C605.829 1303.83 609.496 1299.33 612.996 1295.5C616.496 1291.5 619.079 1287.92 620.746 1284.75C622.413 1281.75 623.246 1279.42 623.246 1277.75C623.246 1275.25 621.746 1274 618.746 1274C616.079 1274 612.246 1275.5 607.246 1278.5C602.413 1281.33 597.329 1286 591.996 1292.5C588.996 1296.17 585.579 1300.5 581.746 1305.5C577.913 1310.33 574.829 1314.83 572.496 1319C571.496 1320.83 570.496 1322.75 569.496 1324.75C568.663 1326.58 567.329 1329.75 565.496 1334.25C564.996 1335.42 563.579 1336.67 561.246 1338C559.079 1339.33 557.329 1340 555.996 1340C554.996 1340 554.496 1339.58 554.496 1338.75C554.496 1338.08 554.746 1337.25 555.246 1336.25C556.079 1334.75 557.913 1330 560.746 1322C563.746 1314 567.496 1304.58 571.996 1293.75C569.496 1296.42 566.746 1299.33 563.746 1302.5C560.746 1305.5 557.413 1308.42 553.746 1311.25C553.079 1311.92 552.329 1312.25 551.496 1312.25C550.496 1312.25 549.996 1311.83 549.996 1311C549.996 1310.33 550.746 1309.42 552.246 1308.25C556.079 1304.92 559.913 1301.42 563.746 1297.75C567.579 1293.92 571.746 1289.17 576.246 1283.5C577.746 1279.83 580.413 1274.58 584.246 1267.75C588.079 1260.75 592.663 1253 597.996 1244.5C603.329 1236 609.246 1227.5 615.746 1219C622.246 1210.5 628.913 1202.92 635.746 1196.25C641.913 1190.25 648.329 1185.67 654.996 1182.5C661.829 1179.33 667.996 1177.75 673.496 1177.75C678.329 1177.75 682.246 1178.92 685.246 1181.25C688.246 1183.58 689.746 1187.33 689.746 1192.5C689.746 1197.67 688.329 1203.17 685.496 1209C682.663 1214.83 679.663 1219.5 676.496 1223C669.329 1231 660.829 1238.33 650.996 1245C641.329 1251.67 631.163 1257.33 620.496 1262C620.163 1262.17 619.829 1262.33 619.496 1262.5C619.163 1262.5 618.829 1262.5 618.496 1262.5C617.329 1262.5 616.746 1262.08 616.746 1261.25C616.746 1260.25 617.663 1259.42 619.496 1258.75C625.829 1255.92 632.246 1252.42 638.746 1248.25C645.413 1244.08 651.579 1239.58 657.246 1234.75C662.913 1229.92 667.663 1225.08 671.496 1220.25C675.996 1214.58 678.913 1210 680.246 1206.5C681.579 1202.83 682.246 1199.75 682.246 1197.25C682.246 1193.92 680.413 1192.25 676.746 1192.25C675.079 1192.25 672.663 1193.08 669.496 1194.75C666.329 1196.25 662.579 1198.75 658.246 1202.25C651.579 1207.58 644.663 1214.08 637.496 1221.75C630.496 1229.42 623.579 1237.75 616.746 1246.75C610.079 1255.75 603.746 1264.92 597.746 1274.25C591.746 1283.58 586.329 1292.67 581.496 1301.5C583.496 1298.67 585.579 1295.83 587.746 1293C589.913 1290 592.079 1287.33 594.246 1285C599.246 1279.5 604.163 1275.5 608.996 1273C613.829 1270.5 618.163 1269.25 621.996 1269.25C626.329 1269.25 629.829 1270.58 632.496 1273.25C635.163 1275.75 636.496 1279.17 636.496 1283.5C636.496 1285.83 636.079 1288.17 635.246 1290.5C634.579 1292.67 633.746 1294.67 632.746 1296.5C631.413 1299.33 629.663 1302.67 627.496 1306.5C625.329 1310.33 623.246 1313.92 621.246 1317.25C617.413 1323.42 615.496 1327.83 615.496 1330.5C615.496 1332 616.163 1332.75 617.496 1332.75C619.163 1332.75 621.913 1331.58 625.746 1329.25C628.746 1327.42 632.079 1325.08 635.746 1322.25C639.579 1319.25 643.329 1316.17 646.996 1313C650.829 1309.83 654.079 1307.08 656.746 1304.75C659.579 1302.25 661.413 1300.58 662.246 1299.75C663.246 1298.75 663.996 1298.25 664.496 1298.25C664.996 1298.25 665.246 1298.5 665.246 1299C665.246 1299.83 664.663 1301 663.496 1302.5C659.163 1307 653.746 1312.08 647.246 1317.75C640.746 1323.42 633.413 1328.92 625.246 1334.25C622.079 1336.42 618.996 1338 615.996 1339C613.163 1339.83 610.579 1340.25 608.246 1340.25ZM668.826 1340.25C663.66 1340.25 659.66 1338.67 656.826 1335.5C653.993 1332.17 652.576 1327.92 652.576 1322.75C652.576 1317.92 653.826 1312.58 656.326 1306.75C658.993 1300.92 663.16 1295 668.826 1289C674.66 1282.67 681.91 1277.58 690.576 1273.75C699.243 1269.75 707.493 1267.75 715.326 1267.75C721.66 1267.75 727.076 1269.17 731.576 1272C736.076 1274.67 739.076 1278.08 740.576 1282.25C742.41 1282.25 744.66 1282.75 747.326 1283.75C750.16 1284.75 751.576 1286.58 751.576 1289.25C751.576 1291.08 750.66 1293.17 748.826 1295.5C747.66 1297.17 745.576 1299.67 742.576 1303C739.743 1306.33 737.076 1309.92 734.576 1313.75C732.576 1316.75 730.993 1319.58 729.826 1322.25C728.66 1324.75 728.076 1326.92 728.076 1328.75C728.076 1331.25 729.326 1332.5 731.826 1332.5C734.66 1332.5 738.91 1330.92 744.576 1327.75C750.743 1324.25 756.66 1320.25 762.326 1315.75C767.993 1311.25 772.41 1307.67 775.576 1305C776.41 1304.33 776.993 1304 777.326 1304C777.993 1304 778.326 1304.42 778.326 1305.25C778.326 1306.25 777.91 1307.17 777.076 1308C775.576 1309.33 772.66 1311.83 768.326 1315.5C763.993 1319.17 758.993 1323 753.326 1327C747.826 1331 742.41 1334.25 737.076 1336.75C734.41 1337.92 731.91 1338.83 729.576 1339.5C727.41 1340 725.41 1340.25 723.576 1340.25C719.076 1340.25 715.66 1339 713.326 1336.5C710.993 1333.83 709.826 1330.42 709.826 1326.25C709.826 1324.58 710.076 1322.83 710.576 1321C711.076 1319.17 711.66 1317.33 712.326 1315.5L714.076 1311.25C709.743 1316.58 705.41 1321.08 701.076 1324.75C696.743 1328.25 692.41 1331.33 688.076 1334C684.41 1336.17 680.91 1337.75 677.576 1338.75C674.41 1339.75 671.493 1340.25 668.826 1340.25ZM676.576 1333.75C679.576 1333.75 683.91 1332 689.576 1328.5C695.243 1324.83 701.826 1319.25 709.326 1311.75C710.326 1310.75 712.16 1309 714.826 1306.5C717.66 1303.83 720.66 1300.92 723.826 1297.75C726.993 1294.42 729.66 1291.17 731.826 1288C734.16 1284.67 735.326 1281.92 735.326 1279.75C735.326 1276.58 732.576 1275 727.076 1275C722.243 1275 716.41 1276.92 709.576 1280.75C702.91 1284.42 696.493 1289.92 690.326 1297.25C683.993 1304.75 679.326 1311.25 676.326 1316.75C673.493 1322.08 672.076 1326.17 672.076 1329C672.076 1332.17 673.576 1333.75 676.576 1333.75ZM829.723 1263.5C827.389 1263.5 825.639 1262.75 824.473 1261.25C823.306 1259.75 822.723 1258.17 822.723 1256.5C822.723 1253.17 824.306 1249.92 827.473 1246.75C830.639 1243.42 833.973 1241.75 837.473 1241.75C839.806 1241.75 841.556 1242.5 842.723 1244C843.889 1245.5 844.473 1247.08 844.473 1248.75C844.473 1252.25 842.889 1255.58 839.723 1258.75C836.723 1261.92 833.389 1263.5 829.723 1263.5ZM791.473 1340.25C784.639 1340.25 779.973 1338.83 777.473 1336C775.139 1333 773.973 1329.67 773.973 1326C773.973 1323 774.473 1320.17 775.473 1317.5C776.473 1314.67 777.306 1312.67 777.973 1311.5C778.973 1309.83 780.306 1307.92 781.973 1305.75C783.806 1303.58 785.806 1301.25 787.973 1298.75C784.639 1301.58 781.473 1304.33 778.473 1307C775.639 1309.67 773.306 1311.67 771.473 1313C770.973 1313.5 770.473 1313.75 769.973 1313.75C769.306 1313.75 768.973 1313.33 768.973 1312.5C768.973 1311.17 769.889 1309.83 771.723 1308.5C776.056 1304.83 780.223 1300.83 784.223 1296.5C788.389 1292.17 792.306 1288.17 795.973 1284.5C799.639 1280.67 802.889 1278 805.723 1276.5C808.723 1274.83 811.139 1273.75 812.973 1273.25C814.806 1272.75 816.306 1272.5 817.473 1272.5C819.306 1272.5 820.639 1272.83 821.473 1273.5C822.306 1274 822.473 1274.58 821.973 1275.25C819.139 1278.08 816.306 1281.75 813.473 1286.25C810.806 1290.58 808.306 1295.17 805.973 1300C803.639 1304.83 801.723 1309.42 800.223 1313.75C798.889 1318.08 798.223 1321.75 798.223 1324.75C798.223 1328.92 799.889 1331 803.223 1331C806.389 1331 810.473 1329.58 815.473 1326.75C820.639 1323.75 825.973 1320 831.473 1315.5C837.139 1311 842.389 1306.58 847.223 1302.25C847.889 1301.58 848.473 1301.25 848.973 1301.25C849.806 1301.25 850.223 1301.67 850.223 1302.5C850.389 1303.33 850.223 1303.92 849.723 1304.25C844.223 1309.42 837.973 1314.83 830.973 1320.5C824.139 1326 817.223 1330.67 810.223 1334.5C803.389 1338.33 797.139 1340.25 791.473 1340.25ZM1202.72 1397.25C1198.55 1397.25 1194.05 1396.17 1189.22 1394C1184.55 1392 1180.64 1388.92 1177.47 1384.75C1174.47 1380.75 1173.14 1375.83 1173.47 1370C1173.64 1366.5 1173.97 1363 1174.47 1359.5C1175.14 1356.17 1176.47 1352.08 1178.47 1347.25C1180.64 1342.42 1183.97 1336.17 1188.47 1328.5C1193.14 1320.67 1199.55 1310.75 1207.72 1298.75C1216.05 1286.75 1226.64 1271.75 1239.47 1253.75C1245.64 1245.25 1249.97 1238.25 1252.47 1232.75C1254.97 1227.25 1256.22 1222.92 1256.22 1219.75C1256.22 1217.08 1255.47 1215.17 1253.97 1214C1252.47 1212.83 1250.55 1212.25 1248.22 1212.25C1244.89 1212.25 1240.89 1213.25 1236.22 1215.25C1231.72 1217.25 1227.39 1219.83 1223.22 1223C1215.39 1228.83 1207.39 1235.5 1199.22 1243C1191.05 1250.33 1183.14 1257.92 1175.47 1265.75C1167.8 1273.58 1160.64 1281.17 1153.97 1288.5C1148.47 1297.33 1143.3 1305.42 1138.47 1312.75C1133.64 1319.92 1130.14 1325.08 1127.97 1328.25C1127.3 1329.42 1126.22 1330.25 1124.72 1330.75C1123.39 1331.25 1122.05 1331.5 1120.72 1331.5C1118.39 1331.5 1116.3 1330.92 1114.47 1329.75C1112.64 1328.42 1112.22 1326.83 1113.22 1325C1113.22 1325 1114.22 1323.25 1116.22 1319.75C1118.22 1316.25 1120.8 1311.58 1123.97 1305.75C1127.3 1299.92 1130.8 1293.5 1134.47 1286.5C1138.3 1279.5 1141.97 1272.58 1145.47 1265.75C1148.97 1258.75 1151.97 1252.33 1154.47 1246.5C1157.14 1240.67 1158.89 1236.08 1159.72 1232.75C1160.72 1228.42 1161.22 1224.42 1161.22 1220.75C1161.22 1217.08 1160.55 1214.17 1159.22 1212C1157.89 1209.67 1155.55 1208.5 1152.22 1208.5C1150.05 1208.5 1147.3 1209.17 1143.97 1210.5C1140.64 1211.83 1136.72 1213.92 1132.22 1216.75C1124.55 1221.75 1115.89 1228.33 1106.22 1236.5C1096.72 1244.5 1086.8 1253.5 1076.47 1263.5C1066.3 1273.33 1056.14 1283.5 1045.97 1294C1035.97 1304.33 1026.64 1314.42 1017.97 1324.25C1017.47 1324.75 1016.89 1325 1016.22 1325C1009.89 1333.17 1005.14 1338.5 1001.97 1341C998.971 1343.5 997.471 1344 997.471 1342.5C997.471 1339.17 1002.05 1331.75 1011.22 1320.25C1018.39 1311.42 1026.05 1302.08 1034.22 1292.25C1042.55 1282.25 1050.3 1272.33 1057.47 1262.5C1064.8 1252.67 1070.64 1243.5 1074.97 1235C1079.3 1226.5 1081.47 1219.33 1081.47 1213.5C1081.47 1205.67 1078.22 1200.25 1071.72 1197.25C1065.39 1194.25 1057.3 1192.75 1047.47 1192.75C1039.64 1192.75 1031.22 1193.5 1022.22 1195C1013.39 1196.33 1004.55 1198.08 995.721 1200.25C987.054 1202.25 979.054 1204.42 971.721 1206.75C964.387 1208.92 958.471 1210.75 953.971 1212.25C946.637 1214.75 939.887 1217.42 933.721 1220.25C927.554 1223.08 922.637 1226 918.971 1229C915.471 1231.83 913.721 1234.75 913.721 1237.75C913.721 1240.58 915.637 1243.33 919.471 1246C919.804 1246.17 919.971 1246.42 919.971 1246.75C919.971 1247.08 919.554 1247.25 918.721 1247.25C917.887 1247.25 917.054 1247 916.221 1246.5C911.387 1243.17 908.971 1238.33 908.971 1232C908.971 1227.33 910.554 1222.42 913.721 1217.25C916.887 1212.08 921.804 1207.67 928.471 1204C936.971 1199.17 946.471 1194.83 956.971 1191C967.471 1187 978.304 1183.67 989.471 1181C1000.64 1178.17 1011.64 1176.08 1022.47 1174.75C1033.47 1173.25 1043.64 1172.5 1052.97 1172.5C1065.3 1172.5 1074.97 1173.75 1081.97 1176.25C1089.14 1178.75 1094.22 1182.17 1097.22 1186.5C1100.22 1190.83 1101.72 1195.67 1101.72 1201C1101.72 1208.17 1099.55 1215.75 1095.22 1223.75C1091.05 1231.75 1086.39 1238.92 1081.22 1245.25C1076.55 1250.92 1070.55 1258 1063.22 1266.5C1056.05 1275 1048.97 1283.58 1041.97 1292.25C1052.14 1281.58 1062.47 1271.17 1072.97 1261C1083.47 1250.83 1093.64 1241.58 1103.47 1233.25C1113.3 1224.92 1122.14 1218.17 1129.97 1213C1138.47 1207.5 1145.89 1203.58 1152.22 1201.25C1158.72 1198.75 1164.22 1197.5 1168.72 1197.5C1175.05 1197.5 1179.55 1199.42 1182.22 1203.25C1185.05 1207.08 1186.47 1211.83 1186.47 1217.5C1186.47 1223.5 1185.05 1230 1182.22 1237C1180.39 1241.5 1177.97 1246.67 1174.97 1252.5C1171.97 1258.17 1168.64 1264.08 1164.97 1270.25C1173.64 1261.25 1182.8 1252.25 1192.47 1243.25C1202.3 1234.25 1211.8 1226.33 1220.97 1219.5C1228.97 1213.67 1237.39 1208.83 1246.22 1205C1255.05 1201.17 1262.55 1199.25 1268.72 1199.25C1272.39 1199.25 1275.3 1200.08 1277.47 1201.75C1279.64 1203.25 1280.72 1205.75 1280.72 1209.25C1280.72 1212.25 1279.72 1216.08 1277.72 1220.75C1275.72 1225.42 1272.55 1231 1268.22 1237.5C1251.22 1262.67 1237.39 1284.33 1226.72 1302.5C1216.22 1320.5 1208.47 1335.5 1203.47 1347.5C1198.47 1359.5 1195.64 1369.08 1194.97 1376.25C1194.8 1377.08 1194.72 1377.92 1194.72 1378.75C1194.72 1379.58 1194.72 1380.42 1194.72 1381.25C1194.72 1385.92 1195.47 1389.17 1196.97 1391C1198.64 1393 1200.47 1394 1202.47 1394C1204.97 1394 1207.3 1393.08 1209.47 1391.25C1210.14 1390.92 1210.55 1390.75 1210.72 1390.75C1211.55 1390.75 1212.22 1391.17 1212.72 1392C1213.22 1392.83 1213.05 1393.67 1212.22 1394.5C1209.89 1396.33 1206.72 1397.25 1202.72 1397.25ZM1254.28 1340.25C1249.11 1340.25 1245.11 1338.67 1242.28 1335.5C1239.44 1332.17 1238.03 1327.92 1238.03 1322.75C1238.03 1317.92 1239.28 1312.58 1241.78 1306.75C1244.44 1300.92 1248.61 1295 1254.28 1289C1260.11 1282.67 1267.36 1277.58 1276.03 1273.75C1284.69 1269.75 1292.94 1267.75 1300.78 1267.75C1307.11 1267.75 1312.53 1269.17 1317.03 1272C1321.53 1274.67 1324.53 1278.08 1326.03 1282.25C1327.86 1282.25 1330.11 1282.75 1332.78 1283.75C1335.61 1284.75 1337.03 1286.58 1337.03 1289.25C1337.03 1291.08 1336.11 1293.17 1334.28 1295.5C1333.11 1297.17 1331.03 1299.67 1328.03 1303C1325.19 1306.33 1322.53 1309.92 1320.03 1313.75C1318.03 1316.75 1316.44 1319.58 1315.28 1322.25C1314.11 1324.75 1313.53 1326.92 1313.53 1328.75C1313.53 1331.25 1314.78 1332.5 1317.28 1332.5C1320.11 1332.5 1324.36 1330.92 1330.03 1327.75C1336.19 1324.25 1342.11 1320.25 1347.78 1315.75C1353.44 1311.25 1357.86 1307.67 1361.03 1305C1361.86 1304.33 1362.44 1304 1362.78 1304C1363.44 1304 1363.78 1304.42 1363.78 1305.25C1363.78 1306.25 1363.36 1307.17 1362.53 1308C1361.03 1309.33 1358.11 1311.83 1353.78 1315.5C1349.44 1319.17 1344.44 1323 1338.78 1327C1333.28 1331 1327.86 1334.25 1322.53 1336.75C1319.86 1337.92 1317.36 1338.83 1315.03 1339.5C1312.86 1340 1310.86 1340.25 1309.03 1340.25C1304.53 1340.25 1301.11 1339 1298.78 1336.5C1296.44 1333.83 1295.28 1330.42 1295.28 1326.25C1295.28 1324.58 1295.53 1322.83 1296.03 1321C1296.53 1319.17 1297.11 1317.33 1297.78 1315.5L1299.53 1311.25C1295.19 1316.58 1290.86 1321.08 1286.53 1324.75C1282.19 1328.25 1277.86 1331.33 1273.53 1334C1269.86 1336.17 1266.36 1337.75 1263.03 1338.75C1259.86 1339.75 1256.94 1340.25 1254.28 1340.25ZM1262.03 1333.75C1265.03 1333.75 1269.36 1332 1275.03 1328.5C1280.69 1324.83 1287.28 1319.25 1294.78 1311.75C1295.78 1310.75 1297.61 1309 1300.28 1306.5C1303.11 1303.83 1306.11 1300.92 1309.28 1297.75C1312.44 1294.42 1315.11 1291.17 1317.28 1288C1319.61 1284.67 1320.78 1281.92 1320.78 1279.75C1320.78 1276.58 1318.03 1275 1312.53 1275C1307.69 1275 1301.86 1276.92 1295.03 1280.75C1288.36 1284.42 1281.94 1289.92 1275.78 1297.25C1269.44 1304.75 1264.78 1311.25 1261.78 1316.75C1258.94 1322.08 1257.53 1326.17 1257.53 1329C1257.53 1332.17 1259.03 1333.75 1262.03 1333.75ZM1373.67 1342.75C1367.01 1342.75 1361.17 1341.5 1356.17 1339C1351.01 1336.33 1347.26 1331.5 1344.92 1324.5C1344.76 1323.83 1345.01 1323.42 1345.67 1323.25C1346.17 1323.08 1346.51 1323.42 1346.67 1324.25C1348.34 1327.92 1350.51 1330.5 1353.17 1332C1355.84 1333.5 1358.76 1334.25 1361.92 1334.25C1367.26 1334.25 1371.92 1332.67 1375.92 1329.5C1380.09 1326.33 1383.76 1322.33 1386.92 1317.5C1390.26 1312.67 1393.17 1307.75 1395.67 1302.75C1398.34 1297.58 1400.84 1293.17 1403.17 1289.5C1406.84 1283.33 1411.17 1277.75 1416.17 1272.75C1421.34 1267.75 1426.01 1264.67 1430.17 1263.5C1429.17 1263 1427.92 1262.75 1426.42 1262.75C1422.26 1262.75 1417.67 1264 1412.67 1266.5C1407.67 1269 1402.59 1272.25 1397.42 1276.25C1392.42 1280.25 1387.51 1284.5 1382.67 1289C1378.01 1293.33 1373.67 1297.42 1369.67 1301.25C1365.84 1304.92 1362.76 1307.83 1360.42 1310C1359.09 1311.17 1358.09 1311.75 1357.42 1311.75C1356.76 1311.75 1356.42 1311.42 1356.42 1310.75C1356.42 1309.75 1356.84 1308.83 1357.67 1308C1362.67 1303.67 1367.84 1298.83 1373.17 1293.5C1378.51 1288 1383.92 1282.75 1389.42 1277.75C1394.92 1272.58 1400.51 1268.33 1406.17 1265C1411.84 1261.67 1417.59 1260 1423.42 1260C1424.09 1260 1424.67 1260 1425.17 1260C1425.84 1260 1426.51 1260.08 1427.17 1260.25C1429.01 1260.42 1430.67 1260.92 1432.17 1261.75C1433.84 1262.58 1434.34 1263.17 1433.67 1263.5C1429.84 1265.17 1426.84 1268.5 1424.67 1273.5C1422.51 1278.5 1420.51 1284.33 1418.67 1291C1416.84 1297.67 1414.59 1304.42 1411.92 1311.25C1409.42 1318.08 1405.76 1324.17 1400.92 1329.5C1403.26 1328.67 1406.92 1326.75 1411.92 1323.75C1416.92 1320.75 1422.42 1317.08 1428.42 1312.75C1434.42 1308.25 1440.01 1303.33 1445.17 1298C1445.84 1297.33 1446.51 1297 1447.17 1297C1448.01 1297 1448.42 1297.42 1448.42 1298.25C1448.42 1298.92 1448.09 1299.58 1447.42 1300.25C1442.92 1304.58 1437.92 1309.25 1432.42 1314.25C1426.92 1319.08 1420.92 1323.67 1414.42 1328C1408.09 1332.33 1401.51 1335.92 1394.67 1338.75C1387.84 1341.42 1380.84 1342.75 1373.67 1342.75ZM1450.33 1342.75C1443.67 1342.75 1437.83 1341.5 1432.83 1339C1427.67 1336.33 1423.92 1331.5 1421.58 1324.5C1421.42 1323.83 1421.67 1323.42 1422.33 1323.25C1422.83 1323.08 1423.17 1323.42 1423.33 1324.25C1425 1327.92 1427.17 1330.5 1429.83 1332C1432.5 1333.5 1435.42 1334.25 1438.58 1334.25C1443.92 1334.25 1448.58 1332.67 1452.58 1329.5C1456.75 1326.33 1460.42 1322.33 1463.58 1317.5C1466.92 1312.67 1469.83 1307.75 1472.33 1302.75C1475 1297.58 1477.5 1293.17 1479.83 1289.5C1483.5 1283.33 1487.83 1277.75 1492.83 1272.75C1498 1267.75 1502.67 1264.67 1506.83 1263.5C1505.83 1263 1504.58 1262.75 1503.08 1262.75C1498.92 1262.75 1494.33 1264 1489.33 1266.5C1484.33 1269 1479.25 1272.25 1474.08 1276.25C1469.08 1280.25 1464.17 1284.5 1459.33 1289C1454.67 1293.33 1450.33 1297.42 1446.33 1301.25C1442.5 1304.92 1439.42 1307.83 1437.08 1310C1435.75 1311.17 1434.75 1311.75 1434.08 1311.75C1433.42 1311.75 1433.08 1311.42 1433.08 1310.75C1433.08 1309.75 1433.5 1308.83 1434.33 1308C1439.33 1303.67 1444.5 1298.83 1449.83 1293.5C1455.17 1288 1460.58 1282.75 1466.08 1277.75C1471.58 1272.58 1477.17 1268.33 1482.83 1265C1488.5 1261.67 1494.25 1260 1500.08 1260C1500.75 1260 1501.33 1260 1501.83 1260C1502.5 1260 1503.17 1260.08 1503.83 1260.25C1505.67 1260.42 1507.33 1260.92 1508.83 1261.75C1510.5 1262.58 1511 1263.17 1510.33 1263.5C1506.5 1265.17 1503.5 1268.5 1501.33 1273.5C1499.17 1278.5 1497.17 1284.33 1495.33 1291C1493.5 1297.67 1491.25 1304.42 1488.58 1311.25C1486.08 1318.08 1482.42 1324.17 1477.58 1329.5C1479.92 1328.67 1483.58 1326.75 1488.58 1323.75C1493.58 1320.75 1499.08 1317.08 1505.08 1312.75C1511.08 1308.25 1516.67 1303.33 1521.83 1298C1522.5 1297.33 1523.17 1297 1523.83 1297C1524.67 1297 1525.08 1297.42 1525.08 1298.25C1525.08 1298.92 1524.75 1299.58 1524.08 1300.25C1519.58 1304.58 1514.58 1309.25 1509.08 1314.25C1503.58 1319.08 1497.58 1323.67 1491.08 1328C1484.75 1332.33 1478.17 1335.92 1471.33 1338.75C1464.5 1341.42 1457.5 1342.75 1450.33 1342.75ZM1526.49 1340.25C1521.33 1340.25 1517.33 1338.67 1514.49 1335.5C1511.66 1332.17 1510.24 1327.92 1510.24 1322.75C1510.24 1317.92 1511.49 1312.58 1513.99 1306.75C1516.66 1300.92 1520.83 1295 1526.49 1289C1532.33 1282.67 1539.58 1277.58 1548.24 1273.75C1556.91 1269.75 1565.16 1267.75 1572.99 1267.75C1579.33 1267.75 1584.74 1269.17 1589.24 1272C1593.74 1274.67 1596.74 1278.08 1598.24 1282.25C1600.08 1282.25 1602.33 1282.75 1604.99 1283.75C1607.83 1284.75 1609.24 1286.58 1609.24 1289.25C1609.24 1291.08 1608.33 1293.17 1606.49 1295.5C1605.33 1297.17 1603.24 1299.67 1600.24 1303C1597.41 1306.33 1594.74 1309.92 1592.24 1313.75C1590.24 1316.75 1588.66 1319.58 1587.49 1322.25C1586.33 1324.75 1585.74 1326.92 1585.74 1328.75C1585.74 1331.25 1586.99 1332.5 1589.49 1332.5C1592.33 1332.5 1596.58 1330.92 1602.24 1327.75C1608.41 1324.25 1614.33 1320.25 1619.99 1315.75C1625.66 1311.25 1630.08 1307.67 1633.24 1305C1634.08 1304.33 1634.66 1304 1634.99 1304C1635.66 1304 1635.99 1304.42 1635.99 1305.25C1635.99 1306.25 1635.58 1307.17 1634.74 1308C1633.24 1309.33 1630.33 1311.83 1625.99 1315.5C1621.66 1319.17 1616.66 1323 1610.99 1327C1605.49 1331 1600.08 1334.25 1594.74 1336.75C1592.08 1337.92 1589.58 1338.83 1587.24 1339.5C1585.08 1340 1583.08 1340.25 1581.24 1340.25C1576.74 1340.25 1573.33 1339 1570.99 1336.5C1568.66 1333.83 1567.49 1330.42 1567.49 1326.25C1567.49 1324.58 1567.74 1322.83 1568.24 1321C1568.74 1319.17 1569.33 1317.33 1569.99 1315.5L1571.74 1311.25C1567.41 1316.58 1563.08 1321.08 1558.74 1324.75C1554.41 1328.25 1550.08 1331.33 1545.74 1334C1542.08 1336.17 1538.58 1337.75 1535.24 1338.75C1532.08 1339.75 1529.16 1340.25 1526.49 1340.25ZM1534.24 1333.75C1537.24 1333.75 1541.58 1332 1547.24 1328.5C1552.91 1324.83 1559.49 1319.25 1566.99 1311.75C1567.99 1310.75 1569.83 1309 1572.49 1306.5C1575.33 1303.83 1578.33 1300.92 1581.49 1297.75C1584.66 1294.42 1587.33 1291.17 1589.49 1288C1591.83 1284.67 1592.99 1281.92 1592.99 1279.75C1592.99 1276.58 1590.24 1275 1584.74 1275C1579.91 1275 1574.08 1276.92 1567.24 1280.75C1560.58 1284.42 1554.16 1289.92 1547.99 1297.25C1541.66 1304.75 1536.99 1311.25 1533.99 1316.75C1531.16 1322.08 1529.74 1326.17 1529.74 1329C1529.74 1332.17 1531.24 1333.75 1534.24 1333.75ZM1609.39 1406.75C1599.22 1406.75 1590.81 1405.58 1584.14 1403.25C1577.47 1400.92 1572.14 1397.75 1568.14 1393.75C1565.47 1390.92 1562.97 1387.17 1560.64 1382.5C1558.31 1378 1557.14 1374.17 1557.14 1371C1557.14 1369.83 1557.39 1369.25 1557.89 1369.25C1559.06 1369.25 1559.81 1369.92 1560.14 1371.25C1560.14 1371.75 1560.72 1373.67 1561.89 1377C1562.89 1380.33 1564.81 1384 1567.64 1388C1570.47 1392 1574.64 1395.5 1580.14 1398.5C1585.64 1401.5 1592.81 1403 1601.64 1403C1612.14 1403 1621.56 1400.5 1629.89 1395.5C1638.22 1390.67 1645.64 1384.25 1652.14 1376.25C1658.81 1368.42 1664.89 1359.83 1670.39 1350.5C1675.89 1341.17 1681.14 1332 1686.14 1323C1691.14 1314 1696.22 1306.08 1701.39 1299.25C1699.22 1301.58 1696.47 1304.5 1693.14 1308C1689.97 1311.33 1686.56 1314.75 1682.89 1318.25C1679.22 1321.75 1675.72 1324.92 1672.39 1327.75C1669.06 1330.58 1666.31 1332.67 1664.14 1334C1660.47 1336.17 1656.97 1337.75 1653.64 1338.75C1650.47 1339.75 1647.56 1340.25 1644.89 1340.25C1639.72 1340.25 1635.72 1338.67 1632.89 1335.5C1630.06 1332.17 1628.64 1327.92 1628.64 1322.75C1628.64 1317.92 1629.89 1312.58 1632.39 1306.75C1635.06 1300.92 1639.22 1295 1644.89 1289C1650.72 1282.67 1657.97 1277.58 1666.64 1273.75C1675.31 1269.75 1683.56 1267.75 1691.39 1267.75C1694.22 1267.75 1696.97 1268.08 1699.64 1268.75C1702.31 1269.25 1704.72 1270.17 1706.89 1271.5C1709.89 1273.33 1712.06 1275.08 1713.39 1276.75C1714.89 1278.25 1715.97 1280.08 1716.64 1282.25C1717.64 1282.25 1719.22 1282.75 1721.39 1283.75C1723.56 1284.58 1725.56 1285.67 1727.39 1287C1729.22 1288.17 1730.14 1289.42 1730.14 1290.75C1730.14 1291.42 1729.47 1292.17 1728.14 1293C1724.81 1294.67 1721.06 1298.67 1716.89 1305C1712.72 1311.17 1708.06 1318.58 1702.89 1327.25C1697.89 1335.75 1692.22 1344.58 1685.89 1353.75C1679.72 1363.08 1672.81 1371.75 1665.14 1379.75C1657.47 1387.75 1648.97 1394.25 1639.64 1399.25C1630.47 1404.25 1620.39 1406.75 1609.39 1406.75ZM1651.89 1333.75C1655.22 1333.75 1659.31 1332.08 1664.14 1328.75C1667.81 1326.25 1671.81 1323.17 1676.14 1319.5C1680.47 1315.67 1684.72 1311.67 1688.89 1307.5C1693.06 1303.33 1696.64 1299.5 1699.64 1296C1705.14 1289.67 1707.89 1284.5 1707.89 1280.5C1707.89 1277.17 1705.89 1275.5 1701.89 1275.5C1697.89 1275.5 1692.39 1277.42 1685.39 1281.25C1681.39 1283.42 1677.14 1286.5 1672.64 1290.5C1668.14 1294.5 1663.89 1298.83 1659.89 1303.5C1656.06 1308.17 1652.97 1312.5 1650.64 1316.5C1647.97 1321.33 1646.64 1325.25 1646.64 1328.25C1646.64 1331.92 1648.39 1333.75 1651.89 1333.75ZM1757.94 1342.5C1750.61 1342.5 1744.44 1340.75 1739.44 1337.25C1734.61 1333.58 1732.19 1328.33 1732.19 1321.5C1732.19 1314.17 1733.94 1307.33 1737.44 1301C1740.94 1294.67 1745.61 1289.17 1751.44 1284.5C1757.27 1279.67 1763.61 1275.92 1770.44 1273.25C1777.44 1270.58 1784.36 1269.25 1791.19 1269.25C1798.02 1269.25 1803.11 1270.5 1806.44 1273C1809.77 1275.33 1811.44 1278.25 1811.44 1281.75C1811.44 1285.08 1809.86 1288.67 1806.69 1292.5C1803.69 1296.17 1799.27 1299.42 1793.44 1302.25C1789.77 1303.92 1785.52 1305.42 1780.69 1306.75C1776.02 1307.92 1771.94 1308.5 1768.44 1308.5C1765.77 1308.5 1764.44 1308.08 1764.44 1307.25C1764.44 1306.58 1765.61 1306.25 1767.94 1306.25C1770.11 1306.25 1773.44 1305.67 1777.94 1304.5C1782.61 1303.17 1787.11 1301.42 1791.44 1299.25C1796.27 1296.58 1799.69 1293.92 1801.69 1291.25C1803.69 1288.58 1804.69 1286.17 1804.69 1284C1804.69 1282 1803.86 1280.33 1802.19 1279C1800.69 1277.67 1798.52 1277 1795.69 1277C1793.02 1277 1790.02 1277.75 1786.69 1279.25C1781.86 1281.42 1776.86 1285 1771.69 1290C1766.69 1294.83 1762.52 1300.17 1759.19 1306C1755.86 1311.83 1754.19 1317.42 1754.19 1322.75C1754.19 1326.42 1755.19 1329.5 1757.19 1332C1759.36 1334.5 1762.52 1335.75 1766.69 1335.75C1771.02 1335.75 1776.02 1334.42 1781.69 1331.75C1787.36 1328.92 1793.11 1325.5 1798.94 1321.5C1804.77 1317.33 1810.19 1313.17 1815.19 1309C1820.19 1304.83 1824.19 1301.33 1827.19 1298.5C1828.19 1297.5 1828.94 1297 1829.44 1297C1829.94 1297 1830.19 1297.42 1830.19 1298.25C1830.19 1299.42 1829.69 1300.42 1828.69 1301.25C1822.36 1307.08 1815.44 1313.17 1807.94 1319.5C1800.61 1325.83 1792.69 1331.25 1784.19 1335.75C1775.86 1340.08 1767.11 1342.33 1757.94 1342.5Z" fill="white"/>
<defs>
<linearGradient id="paint0_linear_117_126" x1="1041.55" y1="494.48" x2="1176.56" y2="167.943" gradientUnits="userSpaceOnUse">
<stop stop-color="white"/>
<stop offset="1" stop-color="#E5317A"/>
</linearGradient>
<linearGradient id="paint1_linear_117_126" x1="1006.6" y1="594.771" x2="1356.89" y2="548.404" gradientUnits="userSpaceOnUse">
<stop stop-color="white"/>
<stop offset="1" stop-color="#E5317A"/>
</linearGradient>
<linearGradient id="paint2_linear_117_126" x1="936.128" y1="626.545" x2="1151.41" y2="906.716" gradientUnits="userSpaceOnUse">
<stop stop-color="white"/>
<stop offset="1" stop-color="#E5317A"/>
</linearGradient>
<linearGradient id="paint3_linear_117_126" x1="777.828" y1="576.529" x2="642.821" y2="903.065" gradientUnits="userSpaceOnUse">
<stop stop-color="white"/>
<stop offset="1" stop-color="#E5317A"/>
</linearGradient>
<linearGradient id="paint4_linear_117_126" x1="812.781" y1="476.258" x2="462.493" y2="522.599" gradientUnits="userSpaceOnUse">
<stop stop-color="white"/>
<stop offset="1" stop-color="#E5317A"/>
</linearGradient>
<linearGradient id="paint5_linear_117_126" x1="883.253" y1="444.488" x2="667.971" y2="164.294" gradientUnits="userSpaceOnUse">
<stop stop-color="white"/>
<stop offset="1" stop-color="#E5317A"/>
</linearGradient>
</defs>
</svg>
