<svg width="2187" height="330" viewBox="0 0 2187 330" fill="none" xmlns="http://www.w3.org/2000/svg">
<mask id="mask0_119_127" style="mask-type:luminance" maskUnits="userSpaceOnUse" x="154" y="0" width="139" height="165">
<path d="M232.629 100.185C198.629 106.533 172.565 120.831 154.436 143.082C157.76 74.7809 201.712 75.9546 177.785 0C208.61 30.9144 215.489 64.6715 198.419 101.271C228.643 81.095 259.865 79.1947 292.089 95.5693C265.23 144.867 220.07 167.854 156.608 164.531C172.554 132.025 197.895 110.576 232.629 100.185Z" fill="white"/>
</mask>
<g mask="url(#mask0_119_127)">
<path d="M292.089 0H154.436V167.855H292.089V0Z" fill="url(#paint0_linear_119_127)"/>
</g>
<mask id="mask1_119_127" style="mask-type:luminance" maskUnits="userSpaceOnUse" x="155" y="102" width="154" height="148">
<path d="M249.531 200.236C227.034 173.965 201.618 158.542 173.284 153.968C234.097 122.696 255.056 161.345 308.872 102.647C297.512 144.8 271.717 167.635 231.486 171.153C264.07 187.239 281.328 213.328 283.258 249.422C227.136 250.811 184.648 223.194 155.795 166.573C191.919 164.13 223.164 175.351 249.531 200.236Z" fill="white"/>
</mask>
<g mask="url(#mask1_119_127)">
<path d="M308.872 102.647H155.795V250.811H308.872V102.647Z" fill="url(#paint1_linear_119_127)"/>
</g>
<mask id="mask2_119_127" style="mask-type:luminance" maskUnits="userSpaceOnUse" x="125" y="166" width="161" height="153">
<path d="M171.338 264.895C182.841 232.277 183.49 202.554 173.284 175.729C230.773 212.759 207.781 250.235 285.523 267.491C243.337 278.729 210.664 267.808 187.502 234.726C189.864 270.988 175.898 298.978 145.605 318.696C116.341 270.787 119.014 220.184 153.623 166.886C173.801 196.949 179.706 229.619 171.338 264.895Z" fill="white"/>
</mask>
<g mask="url(#mask2_119_127)">
<path d="M285.522 166.886H116.342V318.696H285.522V166.886Z" fill="url(#paint2_linear_119_127)"/>
</g>
<mask id="mask3_119_127" style="mask-type:luminance" maskUnits="userSpaceOnUse" x="16" y="164" width="139" height="166">
<path d="M76.2434 229.508C110.243 223.161 136.308 208.862 154.436 186.611C151.112 254.912 107.16 253.739 131.087 329.694C100.262 298.779 93.3837 265.022 110.453 228.423C80.2299 248.599 49.007 250.499 16.7838 234.124C43.6423 184.827 88.8022 161.839 152.265 165.163C136.318 197.668 110.977 219.117 76.2434 229.508Z" fill="white"/>
</mask>
<g mask="url(#mask3_119_127)">
<path d="M154.436 161.838H16.7838V329.692H154.436V161.838Z" fill="url(#paint3_linear_119_127)"/>
</g>
<mask id="mask4_119_127" style="mask-type:luminance" maskUnits="userSpaceOnUse" x="0" y="80" width="154" height="148">
<path d="M59.3413 129.461C81.8382 155.732 107.254 171.155 135.588 175.73C74.7752 207.002 53.8157 168.352 0 227.05C11.3602 184.897 37.1552 162.062 77.3861 158.545C44.8018 142.459 27.5445 116.369 25.6139 80.2754C81.7363 78.8872 124.224 106.503 153.077 163.124C116.953 165.567 85.7078 154.346 59.3413 129.461Z" fill="white"/>
</mask>
<g mask="url(#mask4_119_127)">
<path d="M153.077 78.8867H0.000366211V227.049H153.077V78.8867Z" fill="url(#paint4_linear_119_127)"/>
</g>
<mask id="mask5_119_127" style="mask-type:luminance" maskUnits="userSpaceOnUse" x="23" y="11" width="161" height="152">
<path d="M137.535 64.8014C126.032 97.42 125.383 127.142 135.589 153.967C78.0996 116.937 101.091 79.4611 23.3499 62.205C65.535 50.9668 98.2087 61.8886 121.37 94.9705C119.009 58.7087 132.974 30.7186 163.267 11C192.531 58.9088 189.858 109.512 155.249 162.811C135.072 132.748 129.167 100.078 137.535 64.8014Z" fill="white"/>
</mask>
<g mask="url(#mask5_119_127)">
<path d="M192.531 11H23.3499V162.811H192.531V11Z" fill="url(#paint5_linear_119_127)"/>
</g>
<path d="M420.5 255C405.667 255 392.5 253.167 381 249.5C369.5 246 361.75 240.333 357.75 232.5C356.917 230.833 356.5 229.75 356.5 229.25C356.5 228.917 356.667 228.75 357 228.75C357.667 228.75 358.833 229.333 360.5 230.5C366.833 234.833 374.917 237.667 384.75 239C394.583 240.333 404.417 241 414.25 241C423.75 241 434 240.167 445 238.5C456.167 236.833 467.333 234.417 478.5 231.25C489.833 227.917 500.833 223.75 511.5 218.75C522.167 213.75 531.917 207.917 540.75 201.25C554.583 190.75 564.667 180.583 571 170.75C577.333 160.917 580.5 151.667 580.5 143C580.5 133.5 577 125.083 570 117.75C563 110.417 553.25 104.75 540.75 100.75C528.417 96.5833 513.917 94.5 497.25 94.5C491.25 94.5 485.083 94.75 478.75 95.25C468.083 96.25 457.417 98.0833 446.75 100.75C436.25 103.25 426.167 106.417 416.5 110.25C407 114.083 398.5 118.25 391 122.75C383.5 127.25 377.583 131.917 373.25 136.75C369.083 141.417 367 146 367 150.5C367 153.333 368 156.167 370 159C370.5 159.5 370.75 160.167 370.75 161C370.75 161.667 370.5 162.167 370 162.5C369.5 162.667 368.833 162.417 368 161.75C366.5 160.083 365.083 157.5 363.75 154C362.417 150.333 361.75 146.25 361.75 141.75C361.75 137.25 362.75 132.583 364.75 127.75C366.917 122.75 370.667 118.167 376 114C382.333 109 390.167 104.333 399.5 100C408.833 95.5 419 91.5833 430 88.25C441.167 84.9167 452.583 82.3333 464.25 80.5C476.083 78.6667 487.75 77.75 499.25 77.75C519.083 77.75 535.333 80.75 548 86.75C560.833 92.5833 570.333 100.417 576.5 110.25C582.667 119.917 585.75 130.583 585.75 142.25C585.75 152.917 583.167 163.833 578 175C573 186.167 565.583 196.75 555.75 206.75C546.083 216.75 534.083 225.417 519.75 232.75C510.583 237.25 500.417 241.167 489.25 244.5C478.083 247.833 466.583 250.417 454.75 252.25C442.917 254.083 431.5 255 420.5 255ZM395.25 221.25C394.083 221.25 393.5 220.083 393.5 217.75C393.5 215.417 394.75 211.583 397.25 206.25C399.917 200.917 403.417 194.75 407.75 187.75C412.083 180.75 416.833 173.417 422 165.75C427.333 157.917 432.667 150.333 438 143C443.333 135.5 448.333 128.75 453 122.75C457.667 116.583 461.583 111.75 464.75 108.25C468.083 104.583 470.167 102.75 471 102.75H473.25C475.083 102.75 476 103.167 476 104C476 104.833 475.333 105.917 474 107.25C468.333 113.417 462.333 120.417 456 128.25C449.833 136.083 443.667 144.333 437.5 153C431.333 161.5 425.5 169.917 420 178.25C414.667 186.583 410 194.333 406 201.5C402 208.667 399.083 214.667 397.25 219.5C396.75 220.667 396.083 221.25 395.25 221.25ZM675.443 264C674.61 264 674.693 263.25 675.693 261.75C676.86 260.25 679.61 257.583 683.943 253.75C691.777 246.75 697.527 239.417 701.193 231.75C705.027 224.083 706.943 216.75 706.943 209.75C706.943 199.25 702.943 190.333 694.943 183C687.11 175.5 675.777 171.75 660.943 171.75C651.777 171.75 641.443 173.5 629.943 177C623.277 179 618.777 180 616.443 180C615.11 180 614.443 179.667 614.443 179C614.443 178.5 615.36 177.333 617.193 175.5C621.36 171.667 627.443 166.667 635.443 160.5C643.443 154.167 652.61 147.333 662.943 140C673.443 132.667 684.36 125.333 695.693 118C707.193 110.5 718.443 103.583 729.443 97.25C740.443 90.9167 750.527 85.75 759.693 81.75C769.027 77.5833 776.693 75.1667 782.693 74.5H783.943C785.777 74.5 786.693 75.0833 786.693 76.25C786.693 78.0833 785.36 79.5833 782.693 80.75C768.027 85.9167 753.277 92.4167 738.443 100.25C723.61 108.083 709.36 116.5 695.693 125.5C682.027 134.333 669.527 143 658.193 151.5C646.86 159.833 637.193 167 629.193 173C645.193 167.833 659.86 165.25 673.193 165.25C685.36 165.25 695.777 167.083 704.443 170.75C713.11 174.417 719.777 179.333 724.443 185.5C729.11 191.5 731.443 198.25 731.443 205.75C731.443 214.917 727.527 224.417 719.693 234.25C712.027 244.083 699.693 253.083 682.693 261.25C681.193 261.917 679.777 262.5 678.443 263C677.11 263.667 676.11 264 675.443 264ZM562.443 263.25C561.777 263.25 561.443 262.417 561.443 260.75C561.443 259.917 561.527 258.917 561.693 257.75C561.86 256.75 562.277 255.417 562.943 253.75C564.277 249.917 566.61 244.417 569.943 237.25C573.277 230.083 577.193 221.833 581.693 212.5C586.36 203.167 591.36 193.417 596.693 183.25C602.193 173.083 607.777 163 613.443 153C619.11 143 624.527 133.75 629.693 125.25C635.027 116.583 639.777 109.25 643.943 103.25C648.277 97.25 651.777 93.1667 654.443 91C656.11 89.6667 658.527 89 661.693 89C663.527 89 665.193 89.3333 666.693 90C668.193 90.6667 668.943 91.8333 668.943 93.5C668.943 95 668.11 96.8333 666.443 99C662.443 104.167 657.86 110.417 652.693 117.75C647.693 124.917 642.443 132.5 636.943 140.5C631.61 148.5 626.277 156.5 620.943 164.5C615.777 172.5 611.027 179.917 606.693 186.75C601.36 195.083 595.86 204 590.193 213.5C584.693 222.833 579.61 231.667 574.943 240C570.443 248.333 567.027 255.167 564.693 260.5C564.027 262.333 563.277 263.25 562.443 263.25ZM805.342 136.25C804.342 136.25 803.258 135.833 802.092 135C799.092 132.167 797.592 128.583 797.592 124.25C797.592 119.083 799.758 113.75 804.092 108.25C808.592 102.583 815.175 98.0833 823.842 94.75C833.675 90.9167 844.342 87.75 855.842 85.25C867.342 82.5833 879.092 80.6667 891.092 79.5C903.258 78.1667 914.925 77.5 926.092 77.5C930.258 77.5 934.342 77.5833 938.342 77.75C942.342 77.9167 946.175 78.1667 949.842 78.5C974.342 80.8333 993.008 85.5 1005.84 92.5C1018.84 99.5 1025.34 106.833 1025.34 114.5C1025.34 117.667 1024.26 120.667 1022.09 123.5C1021.09 124.833 1019.59 126.167 1017.59 127.5C1015.76 128.667 1014.26 129.25 1013.09 129.25C1012.09 129.25 1011.59 128.75 1011.59 127.75C1011.59 126.583 1012.43 124.667 1014.09 122C1016.09 119 1017.09 116.25 1017.09 113.75C1017.09 108.917 1014.01 105.167 1007.84 102.5C1001.84 99.6667 993.925 97.75 984.092 96.75C974.425 95.5833 964.008 95 952.842 95C945.175 95 937.425 95.25 929.592 95.75C921.758 96.0833 914.425 96.5833 907.592 97.25C904.425 97.5833 899.592 98.1667 893.092 99C886.758 99.8333 879.592 100.917 871.592 102.25C863.592 103.417 855.508 104.917 847.342 106.75C839.175 108.417 831.675 110.333 824.842 112.5C818.008 114.667 812.425 117.083 808.092 119.75C803.925 122.25 801.842 125.083 801.842 128.25C801.842 130.417 803.092 132.667 805.592 135C805.925 135.333 806.092 135.583 806.092 135.75C806.092 136.083 805.842 136.25 805.342 136.25ZM874.092 262.25C865.425 261.583 859.508 258.833 856.342 254C853.175 249.167 851.592 243.5 851.592 237C851.592 231.5 852.342 225.833 853.842 220C855.342 214.167 856.925 208.833 858.592 204C860.258 199.333 862.425 194.417 865.092 189.25C867.925 184.083 871.675 177.917 876.342 170.75C881.175 163.583 887.425 154.583 895.092 143.75C902.758 132.917 912.258 119.5 923.592 103.5C925.592 101 927.342 99.75 928.842 99.75C929.842 99.75 930.508 100.167 930.842 101C931.342 101.667 931.425 102.333 931.092 103C915.425 126.167 903.342 146.083 894.842 162.75C886.508 179.25 880.342 193.333 876.342 205C875.508 207.333 874.425 210.667 873.092 215C871.925 219.167 870.842 223.75 869.842 228.75C868.842 233.583 868.342 238.167 868.342 242.5C868.342 247.167 869.175 251.167 870.842 254.5C872.508 257.833 875.425 259.5 879.592 259.5C882.092 259.5 884.425 258.667 886.592 257C887.425 256.5 887.925 256.25 888.092 256.25C888.425 256.25 888.592 256.417 888.592 256.75C888.592 257.25 888.092 257.917 887.092 258.75C883.925 261.583 879.592 262.75 874.092 262.25ZM964.246 242.25C960.079 242.25 956.746 241.083 954.246 238.75C951.913 236.417 950.746 233.25 950.746 229.25C950.746 226.75 951.329 223.917 952.496 220.75C953.663 217.583 955.496 214.333 957.996 211C961.829 205.833 965.496 201.333 968.996 197.5C972.496 193.5 975.079 189.917 976.746 186.75C978.413 183.75 979.246 181.417 979.246 179.75C979.246 177.25 977.746 176 974.746 176C972.079 176 968.246 177.5 963.246 180.5C958.413 183.333 953.329 188 947.996 194.5C944.996 198.167 941.579 202.5 937.746 207.5C933.913 212.333 930.829 216.833 928.496 221C927.496 222.833 926.496 224.75 925.496 226.75C924.663 228.583 923.329 231.75 921.496 236.25C920.996 237.417 919.579 238.667 917.246 240C915.079 241.333 913.329 242 911.996 242C910.996 242 910.496 241.583 910.496 240.75C910.496 240.083 910.746 239.25 911.246 238.25C912.079 236.75 913.913 232 916.746 224C919.746 216 923.496 206.583 927.996 195.75C925.496 198.417 922.746 201.333 919.746 204.5C916.746 207.5 913.413 210.417 909.746 213.25C909.079 213.917 908.329 214.25 907.496 214.25C906.496 214.25 905.996 213.833 905.996 213C905.996 212.333 906.746 211.417 908.246 210.25C912.079 206.917 915.913 203.417 919.746 199.75C923.579 195.917 927.746 191.167 932.246 185.5C933.746 181.833 936.413 176.583 940.246 169.75C944.079 162.75 948.663 155 953.996 146.5C959.329 138 965.246 129.5 971.746 121C978.246 112.5 984.913 104.917 991.746 98.25C997.913 92.25 1004.33 87.6667 1011 84.5C1017.83 81.3333 1024 79.75 1029.5 79.75C1034.33 79.75 1038.25 80.9167 1041.25 83.25C1044.25 85.5833 1045.75 89.3333 1045.75 94.5C1045.75 99.6667 1044.33 105.167 1041.5 111C1038.66 116.833 1035.66 121.5 1032.5 125C1025.33 133 1016.83 140.333 1007 147C997.329 153.667 987.163 159.333 976.496 164C976.163 164.167 975.829 164.333 975.496 164.5C975.163 164.5 974.829 164.5 974.496 164.5C973.329 164.5 972.746 164.083 972.746 163.25C972.746 162.25 973.663 161.417 975.496 160.75C981.829 157.917 988.246 154.417 994.746 150.25C1001.41 146.083 1007.58 141.583 1013.25 136.75C1018.91 131.917 1023.66 127.083 1027.5 122.25C1032 116.583 1034.91 112 1036.25 108.5C1037.58 104.833 1038.25 101.75 1038.25 99.25C1038.25 95.9167 1036.41 94.25 1032.75 94.25C1031.08 94.25 1028.66 95.0833 1025.5 96.75C1022.33 98.25 1018.58 100.75 1014.25 104.25C1007.58 109.583 1000.66 116.083 993.496 123.75C986.496 131.417 979.579 139.75 972.746 148.75C966.079 157.75 959.746 166.917 953.746 176.25C947.746 185.583 942.329 194.667 937.496 203.5C939.496 200.667 941.579 197.833 943.746 195C945.913 192 948.079 189.333 950.246 187C955.246 181.5 960.163 177.5 964.996 175C969.829 172.5 974.163 171.25 977.996 171.25C982.329 171.25 985.829 172.583 988.496 175.25C991.163 177.75 992.496 181.167 992.496 185.5C992.496 187.833 992.079 190.167 991.246 192.5C990.579 194.667 989.746 196.667 988.746 198.5C987.413 201.333 985.663 204.667 983.496 208.5C981.329 212.333 979.246 215.917 977.246 219.25C973.413 225.417 971.496 229.833 971.496 232.5C971.496 234 972.163 234.75 973.496 234.75C975.163 234.75 977.913 233.583 981.746 231.25C984.746 229.417 988.079 227.083 991.746 224.25C995.579 221.25 999.329 218.167 1003 215C1006.83 211.833 1010.08 209.083 1012.75 206.75C1015.58 204.25 1017.41 202.583 1018.25 201.75C1019.25 200.75 1020 200.25 1020.5 200.25C1021 200.25 1021.25 200.5 1021.25 201C1021.25 201.833 1020.66 203 1019.5 204.5C1015.16 209 1009.75 214.083 1003.25 219.75C996.746 225.417 989.413 230.917 981.246 236.25C978.079 238.417 974.996 240 971.996 241C969.163 241.833 966.579 242.25 964.246 242.25ZM1024.83 242.25C1019.66 242.25 1015.66 240.667 1012.83 237.5C1009.99 234.167 1008.58 229.917 1008.58 224.75C1008.58 219.917 1009.83 214.583 1012.33 208.75C1014.99 202.917 1019.16 197 1024.83 191C1030.66 184.667 1037.91 179.583 1046.58 175.75C1055.24 171.75 1063.49 169.75 1071.33 169.75C1077.66 169.75 1083.08 171.167 1087.58 174C1092.08 176.667 1095.08 180.083 1096.58 184.25C1098.41 184.25 1100.66 184.75 1103.33 185.75C1106.16 186.75 1107.58 188.583 1107.58 191.25C1107.58 193.083 1106.66 195.167 1104.83 197.5C1103.66 199.167 1101.58 201.667 1098.58 205C1095.74 208.333 1093.08 211.917 1090.58 215.75C1088.58 218.75 1086.99 221.583 1085.83 224.25C1084.66 226.75 1084.08 228.917 1084.08 230.75C1084.08 233.25 1085.33 234.5 1087.83 234.5C1090.66 234.5 1094.91 232.917 1100.58 229.75C1106.74 226.25 1112.66 222.25 1118.33 217.75C1123.99 213.25 1128.41 209.667 1131.58 207C1132.41 206.333 1132.99 206 1133.33 206C1133.99 206 1134.33 206.417 1134.33 207.25C1134.33 208.25 1133.91 209.167 1133.08 210C1131.58 211.333 1128.66 213.833 1124.33 217.5C1119.99 221.167 1114.99 225 1109.33 229C1103.83 233 1098.41 236.25 1093.08 238.75C1090.41 239.917 1087.91 240.833 1085.58 241.5C1083.41 242 1081.41 242.25 1079.58 242.25C1075.08 242.25 1071.66 241 1069.33 238.5C1066.99 235.833 1065.83 232.417 1065.83 228.25C1065.83 226.583 1066.08 224.833 1066.58 223C1067.08 221.167 1067.66 219.333 1068.33 217.5L1070.08 213.25C1065.74 218.583 1061.41 223.083 1057.08 226.75C1052.74 230.25 1048.41 233.333 1044.08 236C1040.41 238.167 1036.91 239.75 1033.58 240.75C1030.41 241.75 1027.49 242.25 1024.83 242.25ZM1032.58 235.75C1035.58 235.75 1039.91 234 1045.58 230.5C1051.24 226.833 1057.83 221.25 1065.33 213.75C1066.33 212.75 1068.16 211 1070.83 208.5C1073.66 205.833 1076.66 202.917 1079.83 199.75C1082.99 196.417 1085.66 193.167 1087.83 190C1090.16 186.667 1091.33 183.917 1091.33 181.75C1091.33 178.583 1088.58 177 1083.08 177C1078.24 177 1072.41 178.917 1065.58 182.75C1058.91 186.417 1052.49 191.917 1046.33 199.25C1039.99 206.75 1035.33 213.25 1032.33 218.75C1029.49 224.083 1028.08 228.167 1028.08 231C1028.08 234.167 1029.58 235.75 1032.58 235.75ZM1185.72 165.5C1183.39 165.5 1181.64 164.75 1180.47 163.25C1179.31 161.75 1178.72 160.167 1178.72 158.5C1178.72 155.167 1180.31 151.917 1183.47 148.75C1186.64 145.417 1189.97 143.75 1193.47 143.75C1195.81 143.75 1197.56 144.5 1198.72 146C1199.89 147.5 1200.47 149.083 1200.47 150.75C1200.47 154.25 1198.89 157.583 1195.72 160.75C1192.72 163.917 1189.39 165.5 1185.72 165.5ZM1147.47 242.25C1140.64 242.25 1135.97 240.833 1133.47 238C1131.14 235 1129.97 231.667 1129.97 228C1129.97 225 1130.47 222.167 1131.47 219.5C1132.47 216.667 1133.31 214.667 1133.97 213.5C1134.97 211.833 1136.31 209.917 1137.97 207.75C1139.81 205.583 1141.81 203.25 1143.97 200.75C1140.64 203.583 1137.47 206.333 1134.47 209C1131.64 211.667 1129.31 213.667 1127.47 215C1126.97 215.5 1126.47 215.75 1125.97 215.75C1125.31 215.75 1124.97 215.333 1124.97 214.5C1124.97 213.167 1125.89 211.833 1127.72 210.5C1132.06 206.833 1136.22 202.833 1140.22 198.5C1144.39 194.167 1148.31 190.167 1151.97 186.5C1155.64 182.667 1158.89 180 1161.72 178.5C1164.72 176.833 1167.14 175.75 1168.97 175.25C1170.81 174.75 1172.31 174.5 1173.47 174.5C1175.31 174.5 1176.64 174.833 1177.47 175.5C1178.31 176 1178.47 176.583 1177.97 177.25C1175.14 180.083 1172.31 183.75 1169.47 188.25C1166.81 192.583 1164.31 197.167 1161.97 202C1159.64 206.833 1157.72 211.417 1156.22 215.75C1154.89 220.083 1154.22 223.75 1154.22 226.75C1154.22 230.917 1155.89 233 1159.22 233C1162.39 233 1166.47 231.583 1171.47 228.75C1176.64 225.75 1181.97 222 1187.47 217.5C1193.14 213 1198.39 208.583 1203.22 204.25C1203.89 203.583 1204.47 203.25 1204.97 203.25C1205.81 203.25 1206.22 203.667 1206.22 204.5C1206.39 205.333 1206.22 205.917 1205.72 206.25C1200.22 211.417 1193.97 216.833 1186.97 222.5C1180.14 228 1173.22 232.667 1166.22 236.5C1159.39 240.333 1153.14 242.25 1147.47 242.25ZM1558.72 299.25C1554.55 299.25 1550.05 298.167 1545.22 296C1540.55 294 1536.64 290.917 1533.47 286.75C1530.47 282.75 1529.14 277.833 1529.47 272C1529.64 268.5 1529.97 265 1530.47 261.5C1531.14 258.167 1532.47 254.083 1534.47 249.25C1536.64 244.417 1539.97 238.167 1544.47 230.5C1549.14 222.667 1555.55 212.75 1563.72 200.75C1572.05 188.75 1582.64 173.75 1595.47 155.75C1601.64 147.25 1605.97 140.25 1608.47 134.75C1610.97 129.25 1612.22 124.917 1612.22 121.75C1612.22 119.083 1611.47 117.167 1609.97 116C1608.47 114.833 1606.55 114.25 1604.22 114.25C1600.89 114.25 1596.89 115.25 1592.22 117.25C1587.72 119.25 1583.39 121.833 1579.22 125C1571.39 130.833 1563.39 137.5 1555.22 145C1547.05 152.333 1539.14 159.917 1531.47 167.75C1523.8 175.583 1516.64 183.167 1509.97 190.5C1504.47 199.333 1499.3 207.417 1494.47 214.75C1489.64 221.917 1486.14 227.083 1483.97 230.25C1483.3 231.417 1482.22 232.25 1480.72 232.75C1479.39 233.25 1478.05 233.5 1476.72 233.5C1474.39 233.5 1472.3 232.917 1470.47 231.75C1468.64 230.417 1468.22 228.833 1469.22 227C1469.22 227 1470.22 225.25 1472.22 221.75C1474.22 218.25 1476.8 213.583 1479.97 207.75C1483.3 201.917 1486.8 195.5 1490.47 188.5C1494.3 181.5 1497.97 174.583 1501.47 167.75C1504.97 160.75 1507.97 154.333 1510.47 148.5C1513.14 142.667 1514.89 138.083 1515.72 134.75C1516.72 130.417 1517.22 126.417 1517.22 122.75C1517.22 119.083 1516.55 116.167 1515.22 114C1513.89 111.667 1511.55 110.5 1508.22 110.5C1506.05 110.5 1503.3 111.167 1499.97 112.5C1496.64 113.833 1492.72 115.917 1488.22 118.75C1480.55 123.75 1471.89 130.333 1462.22 138.5C1452.72 146.5 1442.8 155.5 1432.47 165.5C1422.3 175.333 1412.14 185.5 1401.97 196C1391.97 206.333 1382.64 216.417 1373.97 226.25C1373.47 226.75 1372.89 227 1372.22 227C1365.89 235.167 1361.14 240.5 1357.97 243C1354.97 245.5 1353.47 246 1353.47 244.5C1353.47 241.167 1358.05 233.75 1367.22 222.25C1374.39 213.417 1382.05 204.083 1390.22 194.25C1398.55 184.25 1406.3 174.333 1413.47 164.5C1420.8 154.667 1426.64 145.5 1430.97 137C1435.3 128.5 1437.47 121.333 1437.47 115.5C1437.47 107.667 1434.22 102.25 1427.72 99.25C1421.39 96.25 1413.3 94.75 1403.47 94.75C1395.64 94.75 1387.22 95.5 1378.22 97C1369.39 98.3333 1360.55 100.083 1351.72 102.25C1343.05 104.25 1335.05 106.417 1327.72 108.75C1320.39 110.917 1314.47 112.75 1309.97 114.25C1302.64 116.75 1295.89 119.417 1289.72 122.25C1283.55 125.083 1278.64 128 1274.97 131C1271.47 133.833 1269.72 136.75 1269.72 139.75C1269.72 142.583 1271.64 145.333 1275.47 148C1275.8 148.167 1275.97 148.417 1275.97 148.75C1275.97 149.083 1275.55 149.25 1274.72 149.25C1273.89 149.25 1273.05 149 1272.22 148.5C1267.39 145.167 1264.97 140.333 1264.97 134C1264.97 129.333 1266.55 124.417 1269.72 119.25C1272.89 114.083 1277.8 109.667 1284.47 106C1292.97 101.167 1302.47 96.8333 1312.97 93C1323.47 89 1334.3 85.6667 1345.47 83C1356.64 80.1667 1367.64 78.0833 1378.47 76.75C1389.47 75.25 1399.64 74.5 1408.97 74.5C1421.3 74.5 1430.97 75.75 1437.97 78.25C1445.14 80.75 1450.22 84.1667 1453.22 88.5C1456.22 92.8333 1457.72 97.6667 1457.72 103C1457.72 110.167 1455.55 117.75 1451.22 125.75C1447.05 133.75 1442.39 140.917 1437.22 147.25C1432.55 152.917 1426.55 160 1419.22 168.5C1412.05 177 1404.97 185.583 1397.97 194.25C1408.14 183.583 1418.47 173.167 1428.97 163C1439.47 152.833 1449.64 143.583 1459.47 135.25C1469.3 126.917 1478.14 120.167 1485.97 115C1494.47 109.5 1501.89 105.583 1508.22 103.25C1514.72 100.75 1520.22 99.5 1524.72 99.5C1531.05 99.5 1535.55 101.417 1538.22 105.25C1541.05 109.083 1542.47 113.833 1542.47 119.5C1542.47 125.5 1541.05 132 1538.22 139C1536.39 143.5 1533.97 148.667 1530.97 154.5C1527.97 160.167 1524.64 166.083 1520.97 172.25C1529.64 163.25 1538.8 154.25 1548.47 145.25C1558.3 136.25 1567.8 128.333 1576.97 121.5C1584.97 115.667 1593.39 110.833 1602.22 107C1611.05 103.167 1618.55 101.25 1624.72 101.25C1628.39 101.25 1631.3 102.083 1633.47 103.75C1635.64 105.25 1636.72 107.75 1636.72 111.25C1636.72 114.25 1635.72 118.083 1633.72 122.75C1631.72 127.417 1628.55 133 1624.22 139.5C1607.22 164.667 1593.39 186.333 1582.72 204.5C1572.22 222.5 1564.47 237.5 1559.47 249.5C1554.47 261.5 1551.64 271.083 1550.97 278.25C1550.8 279.083 1550.72 279.917 1550.72 280.75C1550.72 281.583 1550.72 282.417 1550.72 283.25C1550.72 287.917 1551.47 291.167 1552.97 293C1554.64 295 1556.47 296 1558.47 296C1560.97 296 1563.3 295.083 1565.47 293.25C1566.14 292.917 1566.55 292.75 1566.72 292.75C1567.55 292.75 1568.22 293.167 1568.72 294C1569.22 294.833 1569.05 295.667 1568.22 296.5C1565.89 298.333 1562.72 299.25 1558.72 299.25ZM1610.28 242.25C1605.11 242.25 1601.11 240.667 1598.28 237.5C1595.44 234.167 1594.03 229.917 1594.03 224.75C1594.03 219.917 1595.28 214.583 1597.78 208.75C1600.44 202.917 1604.61 197 1610.28 191C1616.11 184.667 1623.36 179.583 1632.03 175.75C1640.69 171.75 1648.94 169.75 1656.78 169.75C1663.11 169.75 1668.53 171.167 1673.03 174C1677.53 176.667 1680.53 180.083 1682.03 184.25C1683.86 184.25 1686.11 184.75 1688.78 185.75C1691.61 186.75 1693.03 188.583 1693.03 191.25C1693.03 193.083 1692.11 195.167 1690.28 197.5C1689.11 199.167 1687.03 201.667 1684.03 205C1681.19 208.333 1678.53 211.917 1676.03 215.75C1674.03 218.75 1672.44 221.583 1671.28 224.25C1670.11 226.75 1669.53 228.917 1669.53 230.75C1669.53 233.25 1670.78 234.5 1673.28 234.5C1676.11 234.5 1680.36 232.917 1686.03 229.75C1692.19 226.25 1698.11 222.25 1703.78 217.75C1709.44 213.25 1713.86 209.667 1717.03 207C1717.86 206.333 1718.44 206 1718.78 206C1719.44 206 1719.78 206.417 1719.78 207.25C1719.78 208.25 1719.36 209.167 1718.53 210C1717.03 211.333 1714.11 213.833 1709.78 217.5C1705.44 221.167 1700.44 225 1694.78 229C1689.28 233 1683.86 236.25 1678.53 238.75C1675.86 239.917 1673.36 240.833 1671.03 241.5C1668.86 242 1666.86 242.25 1665.03 242.25C1660.53 242.25 1657.11 241 1654.78 238.5C1652.44 235.833 1651.28 232.417 1651.28 228.25C1651.28 226.583 1651.53 224.833 1652.03 223C1652.53 221.167 1653.11 219.333 1653.78 217.5L1655.53 213.25C1651.19 218.583 1646.86 223.083 1642.53 226.75C1638.19 230.25 1633.86 233.333 1629.53 236C1625.86 238.167 1622.36 239.75 1619.03 240.75C1615.86 241.75 1612.94 242.25 1610.28 242.25ZM1618.03 235.75C1621.03 235.75 1625.36 234 1631.03 230.5C1636.69 226.833 1643.28 221.25 1650.78 213.75C1651.78 212.75 1653.61 211 1656.28 208.5C1659.11 205.833 1662.11 202.917 1665.28 199.75C1668.44 196.417 1671.11 193.167 1673.28 190C1675.61 186.667 1676.78 183.917 1676.78 181.75C1676.78 178.583 1674.03 177 1668.53 177C1663.69 177 1657.86 178.917 1651.03 182.75C1644.36 186.417 1637.94 191.917 1631.78 199.25C1625.44 206.75 1620.78 213.25 1617.78 218.75C1614.94 224.083 1613.53 228.167 1613.53 231C1613.53 234.167 1615.03 235.75 1618.03 235.75ZM1729.67 244.75C1723.01 244.75 1717.17 243.5 1712.17 241C1707.01 238.333 1703.26 233.5 1700.92 226.5C1700.76 225.833 1701.01 225.417 1701.67 225.25C1702.17 225.083 1702.51 225.417 1702.67 226.25C1704.34 229.917 1706.51 232.5 1709.17 234C1711.84 235.5 1714.76 236.25 1717.92 236.25C1723.26 236.25 1727.92 234.667 1731.92 231.5C1736.09 228.333 1739.76 224.333 1742.92 219.5C1746.26 214.667 1749.17 209.75 1751.67 204.75C1754.34 199.583 1756.84 195.167 1759.17 191.5C1762.84 185.333 1767.17 179.75 1772.17 174.75C1777.34 169.75 1782.01 166.667 1786.17 165.5C1785.17 165 1783.92 164.75 1782.42 164.75C1778.26 164.75 1773.67 166 1768.67 168.5C1763.67 171 1758.59 174.25 1753.42 178.25C1748.42 182.25 1743.51 186.5 1738.67 191C1734.01 195.333 1729.67 199.417 1725.67 203.25C1721.84 206.917 1718.76 209.833 1716.42 212C1715.09 213.167 1714.09 213.75 1713.42 213.75C1712.76 213.75 1712.42 213.417 1712.42 212.75C1712.42 211.75 1712.84 210.833 1713.67 210C1718.67 205.667 1723.84 200.833 1729.17 195.5C1734.51 190 1739.92 184.75 1745.42 179.75C1750.92 174.583 1756.51 170.333 1762.17 167C1767.84 163.667 1773.59 162 1779.42 162C1780.09 162 1780.67 162 1781.17 162C1781.84 162 1782.51 162.083 1783.17 162.25C1785.01 162.417 1786.67 162.917 1788.17 163.75C1789.84 164.583 1790.34 165.167 1789.67 165.5C1785.84 167.167 1782.84 170.5 1780.67 175.5C1778.51 180.5 1776.51 186.333 1774.67 193C1772.84 199.667 1770.59 206.417 1767.92 213.25C1765.42 220.083 1761.76 226.167 1756.92 231.5C1759.26 230.667 1762.92 228.75 1767.92 225.75C1772.92 222.75 1778.42 219.083 1784.42 214.75C1790.42 210.25 1796.01 205.333 1801.17 200C1801.84 199.333 1802.51 199 1803.17 199C1804.01 199 1804.42 199.417 1804.42 200.25C1804.42 200.917 1804.09 201.583 1803.42 202.25C1798.92 206.583 1793.92 211.25 1788.42 216.25C1782.92 221.083 1776.92 225.667 1770.42 230C1764.09 234.333 1757.51 237.917 1750.67 240.75C1743.84 243.417 1736.84 244.75 1729.67 244.75ZM1806.33 244.75C1799.67 244.75 1793.83 243.5 1788.83 241C1783.67 238.333 1779.92 233.5 1777.58 226.5C1777.42 225.833 1777.67 225.417 1778.33 225.25C1778.83 225.083 1779.17 225.417 1779.33 226.25C1781 229.917 1783.17 232.5 1785.83 234C1788.5 235.5 1791.42 236.25 1794.58 236.25C1799.92 236.25 1804.58 234.667 1808.58 231.5C1812.75 228.333 1816.42 224.333 1819.58 219.5C1822.92 214.667 1825.83 209.75 1828.33 204.75C1831 199.583 1833.5 195.167 1835.83 191.5C1839.5 185.333 1843.83 179.75 1848.83 174.75C1854 169.75 1858.67 166.667 1862.83 165.5C1861.83 165 1860.58 164.75 1859.08 164.75C1854.92 164.75 1850.33 166 1845.33 168.5C1840.33 171 1835.25 174.25 1830.08 178.25C1825.08 182.25 1820.17 186.5 1815.33 191C1810.67 195.333 1806.33 199.417 1802.33 203.25C1798.5 206.917 1795.42 209.833 1793.08 212C1791.75 213.167 1790.75 213.75 1790.08 213.75C1789.42 213.75 1789.08 213.417 1789.08 212.75C1789.08 211.75 1789.5 210.833 1790.33 210C1795.33 205.667 1800.5 200.833 1805.83 195.5C1811.17 190 1816.58 184.75 1822.08 179.75C1827.58 174.583 1833.17 170.333 1838.83 167C1844.5 163.667 1850.25 162 1856.08 162C1856.75 162 1857.33 162 1857.83 162C1858.5 162 1859.17 162.083 1859.83 162.25C1861.67 162.417 1863.33 162.917 1864.83 163.75C1866.5 164.583 1867 165.167 1866.33 165.5C1862.5 167.167 1859.5 170.5 1857.33 175.5C1855.17 180.5 1853.17 186.333 1851.33 193C1849.5 199.667 1847.25 206.417 1844.58 213.25C1842.08 220.083 1838.42 226.167 1833.58 231.5C1835.92 230.667 1839.58 228.75 1844.58 225.75C1849.58 222.75 1855.08 219.083 1861.08 214.75C1867.08 210.25 1872.67 205.333 1877.83 200C1878.5 199.333 1879.17 199 1879.83 199C1880.67 199 1881.08 199.417 1881.08 200.25C1881.08 200.917 1880.75 201.583 1880.08 202.25C1875.58 206.583 1870.58 211.25 1865.08 216.25C1859.58 221.083 1853.58 225.667 1847.08 230C1840.75 234.333 1834.17 237.917 1827.33 240.75C1820.5 243.417 1813.5 244.75 1806.33 244.75ZM1882.49 242.25C1877.33 242.25 1873.33 240.667 1870.49 237.5C1867.66 234.167 1866.24 229.917 1866.24 224.75C1866.24 219.917 1867.49 214.583 1869.99 208.75C1872.66 202.917 1876.83 197 1882.49 191C1888.33 184.667 1895.58 179.583 1904.24 175.75C1912.91 171.75 1921.16 169.75 1928.99 169.75C1935.33 169.75 1940.74 171.167 1945.24 174C1949.74 176.667 1952.74 180.083 1954.24 184.25C1956.08 184.25 1958.33 184.75 1960.99 185.75C1963.83 186.75 1965.24 188.583 1965.24 191.25C1965.24 193.083 1964.33 195.167 1962.49 197.5C1961.33 199.167 1959.24 201.667 1956.24 205C1953.41 208.333 1950.74 211.917 1948.24 215.75C1946.24 218.75 1944.66 221.583 1943.49 224.25C1942.33 226.75 1941.74 228.917 1941.74 230.75C1941.74 233.25 1942.99 234.5 1945.49 234.5C1948.33 234.5 1952.58 232.917 1958.24 229.75C1964.41 226.25 1970.33 222.25 1975.99 217.75C1981.66 213.25 1986.08 209.667 1989.24 207C1990.08 206.333 1990.66 206 1990.99 206C1991.66 206 1991.99 206.417 1991.99 207.25C1991.99 208.25 1991.58 209.167 1990.74 210C1989.24 211.333 1986.33 213.833 1981.99 217.5C1977.66 221.167 1972.66 225 1966.99 229C1961.49 233 1956.08 236.25 1950.74 238.75C1948.08 239.917 1945.58 240.833 1943.24 241.5C1941.08 242 1939.08 242.25 1937.24 242.25C1932.74 242.25 1929.33 241 1926.99 238.5C1924.66 235.833 1923.49 232.417 1923.49 228.25C1923.49 226.583 1923.74 224.833 1924.24 223C1924.74 221.167 1925.33 219.333 1925.99 217.5L1927.74 213.25C1923.41 218.583 1919.08 223.083 1914.74 226.75C1910.41 230.25 1906.08 233.333 1901.74 236C1898.08 238.167 1894.58 239.75 1891.24 240.75C1888.08 241.75 1885.16 242.25 1882.49 242.25ZM1890.24 235.75C1893.24 235.75 1897.58 234 1903.24 230.5C1908.91 226.833 1915.49 221.25 1922.99 213.75C1923.99 212.75 1925.83 211 1928.49 208.5C1931.33 205.833 1934.33 202.917 1937.49 199.75C1940.66 196.417 1943.33 193.167 1945.49 190C1947.83 186.667 1948.99 183.917 1948.99 181.75C1948.99 178.583 1946.24 177 1940.74 177C1935.91 177 1930.08 178.917 1923.24 182.75C1916.58 186.417 1910.16 191.917 1903.99 199.25C1897.66 206.75 1892.99 213.25 1889.99 218.75C1887.16 224.083 1885.74 228.167 1885.74 231C1885.74 234.167 1887.24 235.75 1890.24 235.75ZM1965.39 308.75C1955.22 308.75 1946.81 307.583 1940.14 305.25C1933.47 302.917 1928.14 299.75 1924.14 295.75C1921.47 292.917 1918.97 289.167 1916.64 284.5C1914.31 280 1913.14 276.167 1913.14 273C1913.14 271.833 1913.39 271.25 1913.89 271.25C1915.06 271.25 1915.81 271.917 1916.14 273.25C1916.14 273.75 1916.72 275.667 1917.89 279C1918.89 282.333 1920.81 286 1923.64 290C1926.47 294 1930.64 297.5 1936.14 300.5C1941.64 303.5 1948.81 305 1957.64 305C1968.14 305 1977.56 302.5 1985.89 297.5C1994.22 292.667 2001.64 286.25 2008.14 278.25C2014.81 270.417 2020.89 261.833 2026.39 252.5C2031.89 243.167 2037.14 234 2042.14 225C2047.14 216 2052.22 208.083 2057.39 201.25C2055.22 203.583 2052.47 206.5 2049.14 210C2045.97 213.333 2042.56 216.75 2038.89 220.25C2035.22 223.75 2031.72 226.917 2028.39 229.75C2025.06 232.583 2022.31 234.667 2020.14 236C2016.47 238.167 2012.97 239.75 2009.64 240.75C2006.47 241.75 2003.56 242.25 2000.89 242.25C1995.72 242.25 1991.72 240.667 1988.89 237.5C1986.06 234.167 1984.64 229.917 1984.64 224.75C1984.64 219.917 1985.89 214.583 1988.39 208.75C1991.06 202.917 1995.22 197 2000.89 191C2006.72 184.667 2013.97 179.583 2022.64 175.75C2031.31 171.75 2039.56 169.75 2047.39 169.75C2050.22 169.75 2052.97 170.083 2055.64 170.75C2058.31 171.25 2060.72 172.167 2062.89 173.5C2065.89 175.333 2068.06 177.083 2069.39 178.75C2070.89 180.25 2071.97 182.083 2072.64 184.25C2073.64 184.25 2075.22 184.75 2077.39 185.75C2079.56 186.583 2081.56 187.667 2083.39 189C2085.22 190.167 2086.14 191.417 2086.14 192.75C2086.14 193.417 2085.47 194.167 2084.14 195C2080.81 196.667 2077.06 200.667 2072.89 207C2068.72 213.167 2064.06 220.583 2058.89 229.25C2053.89 237.75 2048.22 246.583 2041.89 255.75C2035.72 265.083 2028.81 273.75 2021.14 281.75C2013.47 289.75 2004.97 296.25 1995.64 301.25C1986.47 306.25 1976.39 308.75 1965.39 308.75ZM2007.89 235.75C2011.22 235.75 2015.31 234.083 2020.14 230.75C2023.81 228.25 2027.81 225.167 2032.14 221.5C2036.47 217.667 2040.72 213.667 2044.89 209.5C2049.06 205.333 2052.64 201.5 2055.64 198C2061.14 191.667 2063.89 186.5 2063.89 182.5C2063.89 179.167 2061.89 177.5 2057.89 177.5C2053.89 177.5 2048.39 179.417 2041.39 183.25C2037.39 185.417 2033.14 188.5 2028.64 192.5C2024.14 196.5 2019.89 200.833 2015.89 205.5C2012.06 210.167 2008.97 214.5 2006.64 218.5C2003.97 223.333 2002.64 227.25 2002.64 230.25C2002.64 233.917 2004.39 235.75 2007.89 235.75ZM2113.94 244.5C2106.61 244.5 2100.44 242.75 2095.44 239.25C2090.61 235.583 2088.19 230.333 2088.19 223.5C2088.19 216.167 2089.94 209.333 2093.44 203C2096.94 196.667 2101.61 191.167 2107.44 186.5C2113.27 181.667 2119.61 177.917 2126.44 175.25C2133.44 172.583 2140.36 171.25 2147.19 171.25C2154.02 171.25 2159.11 172.5 2162.44 175C2165.77 177.333 2167.44 180.25 2167.44 183.75C2167.44 187.083 2165.86 190.667 2162.69 194.5C2159.69 198.167 2155.27 201.417 2149.44 204.25C2145.77 205.917 2141.52 207.417 2136.69 208.75C2132.02 209.917 2127.94 210.5 2124.44 210.5C2121.77 210.5 2120.44 210.083 2120.44 209.25C2120.44 208.583 2121.61 208.25 2123.94 208.25C2126.11 208.25 2129.44 207.667 2133.94 206.5C2138.61 205.167 2143.11 203.417 2147.44 201.25C2152.27 198.583 2155.69 195.917 2157.69 193.25C2159.69 190.583 2160.69 188.167 2160.69 186C2160.69 184 2159.86 182.333 2158.19 181C2156.69 179.667 2154.52 179 2151.69 179C2149.02 179 2146.02 179.75 2142.69 181.25C2137.86 183.417 2132.86 187 2127.69 192C2122.69 196.833 2118.52 202.167 2115.19 208C2111.86 213.833 2110.19 219.417 2110.19 224.75C2110.19 228.417 2111.19 231.5 2113.19 234C2115.36 236.5 2118.52 237.75 2122.69 237.75C2127.02 237.75 2132.02 236.417 2137.69 233.75C2143.36 230.917 2149.11 227.5 2154.94 223.5C2160.77 219.333 2166.19 215.167 2171.19 211C2176.19 206.833 2180.19 203.333 2183.19 200.5C2184.19 199.5 2184.94 199 2185.44 199C2185.94 199 2186.19 199.417 2186.19 200.25C2186.19 201.417 2185.69 202.417 2184.69 203.25C2178.36 209.083 2171.44 215.167 2163.94 221.5C2156.61 227.833 2148.69 233.25 2140.19 237.75C2131.86 242.083 2123.11 244.333 2113.94 244.5Z" fill="white"/>
<defs>
<linearGradient id="paint0_linear_119_127" x1="195.028" y1="152.217" x2="236.587" y2="51.6982" gradientUnits="userSpaceOnUse">
<stop stop-color="white"/>
<stop offset="1" stop-color="#E5317A"/>
</linearGradient>
<linearGradient id="paint1_linear_119_127" x1="184.268" y1="183.091" x2="292.098" y2="168.818" gradientUnits="userSpaceOnUse">
<stop stop-color="white"/>
<stop offset="1" stop-color="#E5317A"/>
</linearGradient>
<linearGradient id="paint2_linear_119_127" x1="162.575" y1="192.872" x2="228.845" y2="279.118" gradientUnits="userSpaceOnUse">
<stop stop-color="white"/>
<stop offset="1" stop-color="#E5317A"/>
</linearGradient>
<linearGradient id="paint3_linear_119_127" x1="113.845" y1="177.474" x2="72.2856" y2="277.993" gradientUnits="userSpaceOnUse">
<stop stop-color="white"/>
<stop offset="1" stop-color="#E5317A"/>
</linearGradient>
<linearGradient id="paint4_linear_119_127" x1="124.605" y1="146.609" x2="16.7748" y2="160.874" gradientUnits="userSpaceOnUse">
<stop stop-color="white"/>
<stop offset="1" stop-color="#E5317A"/>
</linearGradient>
<linearGradient id="paint5_linear_119_127" x1="146.298" y1="136.829" x2="80.0274" y2="50.5761" gradientUnits="userSpaceOnUse">
<stop stop-color="white"/>
<stop offset="1" stop-color="#E5317A"/>
</linearGradient>
</defs>
</svg>
